<svg xmlns="http://www.w3.org/2000/svg" xmlns:xlink="http://www.w3.org/1999/xlink" width="40" zoomAndPan="magnify" viewBox="0 0 30 30.000001" height="40" preserveAspectRatio="xMidYMid meet" version="1.0"><defs><clipPath id="id1"><path d="M 3.386719 2.167969 L 27.339844 2.167969 L 27.339844 26.121094 L 3.386719 26.121094 Z M 3.386719 2.167969 " clip-rule="nonzero"/></clipPath></defs><g clip-path="url(#id1)"><path fill="rgb(21.179199%, 72.938538%, 58.039856%)" d="M 15.367188 2.164062 C 21.980469 2.164062 27.34375 7.527344 27.34375 14.140625 C 27.34375 20.753906 21.980469 26.117188 15.367188 26.117188 C 8.75 26.117188 3.390625 20.753906 3.390625 14.140625 C 3.390625 7.527344 8.75 2.164062 15.367188 2.164062 " fill-opacity="1" fill-rule="nonzero"/></g><path fill="rgb(100%, 100%, 100%)" d="M 15.414062 7.582031 C 15.199219 7.558594 15.003906 7.609375 14.867188 7.746094 L 10.457031 12.152344 C 10.15625 12.453125 10.269531 13.054688 10.707031 13.496094 C 11.148438 13.9375 11.75 14.046875 12.050781 13.746094 L 14.167969 11.628906 L 14.167969 19.578125 C 14.167969 20.199219 14.671875 20.707031 15.296875 20.707031 C 15.917969 20.707031 16.421875 20.199219 16.421875 19.578125 L 16.421875 11.394531 L 18.773438 13.746094 C 19.074219 14.046875 19.675781 13.9375 20.117188 13.496094 C 20.558594 13.054688 20.667969 12.453125 20.367188 12.152344 L 15.960938 7.746094 C 15.824219 7.609375 15.628906 7.558594 15.414062 7.582031 " fill-opacity="1" fill-rule="nonzero"/></svg>