<svg xmlns="http://www.w3.org/2000/svg" xmlns:xlink="http://www.w3.org/1999/xlink" width="172" zoomAndPan="magnify" viewBox="0 0 129 36.000001" height="48" preserveAspectRatio="xMidYMid meet" version="1.0"><defs><g/><clipPath id="id1"><path d="M 5.246094 4.238281 L 22 4.238281 L 22 30 L 5.246094 30 Z M 5.246094 4.238281 " clip-rule="nonzero"/></clipPath><clipPath id="id2"><path d="M 13 11 L 32.976562 11 L 32.976562 31.96875 L 13 31.96875 Z M 13 11 " clip-rule="nonzero"/></clipPath><clipPath id="id3"><path d="M 17 31 L 19 31 L 19 31.96875 L 17 31.96875 Z M 17 31 " clip-rule="nonzero"/></clipPath><clipPath id="id4"><path d="M 16 30 L 19 30 L 19 31.96875 L 16 31.96875 Z M 16 30 " clip-rule="nonzero"/></clipPath><clipPath id="id5"><path d="M 17 31 L 20 31 L 20 31.96875 L 17 31.96875 Z M 17 31 " clip-rule="nonzero"/></clipPath><clipPath id="id6"><path d="M 17 30 L 20 30 L 20 31.96875 L 17 31.96875 Z M 17 30 " clip-rule="nonzero"/></clipPath><clipPath id="id7"><path d="M 18 31 L 20 31 L 20 31.96875 L 18 31.96875 Z M 18 31 " clip-rule="nonzero"/></clipPath><clipPath id="id8"><path d="M 18 30 L 21 30 L 21 31.96875 L 18 31.96875 Z M 18 30 " clip-rule="nonzero"/></clipPath><clipPath id="id9"><path d="M 27 31 L 29 31 L 29 31.96875 L 27 31.96875 Z M 27 31 " clip-rule="nonzero"/></clipPath><clipPath id="id10"><path d="M 27 30 L 30 30 L 30 31.96875 L 27 31.96875 Z M 27 30 " clip-rule="nonzero"/></clipPath><clipPath id="id11"><path d="M 26 31 L 29 31 L 29 31.96875 L 26 31.96875 Z M 26 31 " clip-rule="nonzero"/></clipPath><clipPath id="id12"><path d="M 26 30 L 29 30 L 29 31.96875 L 26 31.96875 Z M 26 30 " clip-rule="nonzero"/></clipPath><clipPath id="id13"><path d="M 26 31 L 28 31 L 28 31.96875 L 26 31.96875 Z M 26 31 " clip-rule="nonzero"/></clipPath><clipPath id="id14"><path d="M 25 30 L 28 30 L 28 31.96875 L 25 31.96875 Z M 25 30 " clip-rule="nonzero"/></clipPath></defs><g clip-path="url(#id1)"><path fill="rgb(100%, 100%, 100%)" d="M 21.019531 27.886719 C 21.019531 28.582031 20.453125 29.144531 19.757812 29.144531 L 6.738281 29.144531 C 6.039062 29.144531 5.472656 28.582031 5.472656 27.886719 L 5.472656 5.695312 C 5.472656 5 6.039062 4.4375 6.738281 4.4375 L 19.757812 4.4375 C 20.453125 4.4375 21.019531 5 21.019531 5.695312 L 21.019531 27.886719 " fill-opacity="1" fill-rule="nonzero"/><path fill="rgb(13.729858%, 12.159729%, 12.548828%)" d="M 21.019531 27.886719 L 20.820312 27.886719 C 20.820312 28.179688 20.703125 28.441406 20.507812 28.636719 C 20.316406 28.828125 20.050781 28.945312 19.757812 28.945312 L 6.738281 28.945312 C 6.441406 28.945312 6.175781 28.828125 5.984375 28.636719 C 5.789062 28.441406 5.671875 28.179688 5.671875 27.886719 L 5.671875 5.695312 C 5.671875 5.402344 5.789062 5.136719 5.984375 4.945312 C 6.175781 4.753906 6.441406 4.636719 6.738281 4.636719 L 19.757812 4.636719 C 20.050781 4.636719 20.316406 4.753906 20.507812 4.945312 C 20.703125 5.136719 20.820312 5.402344 20.820312 5.695312 L 20.820312 27.886719 L 21.21875 27.886719 L 21.21875 5.695312 C 21.21875 4.890625 20.566406 4.238281 19.757812 4.238281 L 6.738281 4.238281 C 5.929688 4.238281 5.273438 4.890625 5.273438 5.695312 L 5.273438 27.886719 C 5.273438 28.691406 5.929688 29.339844 6.738281 29.339844 L 19.757812 29.339844 C 20.566406 29.339844 21.21875 28.691406 21.21875 27.886719 L 21.019531 27.886719 " fill-opacity="1" fill-rule="nonzero"/></g><path fill="rgb(100%, 100%, 100%)" d="M 19.566406 10.386719 L 7.054688 10.386719 L 7.054688 7.539062 L 19.566406 7.539062 L 19.566406 10.386719 " fill-opacity="1" fill-rule="nonzero"/><path fill="rgb(13.729858%, 12.159729%, 12.548828%)" d="M 19.566406 10.386719 L 19.566406 10.191406 L 7.25 10.191406 L 7.25 7.734375 L 19.367188 7.734375 L 19.367188 10.386719 L 19.566406 10.386719 L 19.566406 10.191406 L 19.566406 10.386719 L 19.765625 10.386719 L 19.765625 7.539062 C 19.765625 7.484375 19.746094 7.433594 19.707031 7.398438 C 19.671875 7.363281 19.621094 7.339844 19.566406 7.339844 L 7.054688 7.339844 C 7 7.339844 6.949219 7.363281 6.914062 7.398438 C 6.875 7.433594 6.855469 7.484375 6.855469 7.539062 L 6.855469 10.386719 C 6.855469 10.441406 6.875 10.492188 6.914062 10.527344 C 6.949219 10.566406 7 10.585938 7.054688 10.585938 L 19.566406 10.585938 C 19.621094 10.585938 19.671875 10.566406 19.707031 10.527344 C 19.746094 10.492188 19.765625 10.441406 19.765625 10.386719 L 19.566406 10.386719 " fill-opacity="1" fill-rule="nonzero"/><path fill="rgb(100%, 100%, 100%)" d="M 10.382812 6.46875 C 10.382812 6.644531 10.242188 6.785156 10.066406 6.785156 L 7.578125 6.785156 C 7.40625 6.785156 7.265625 6.644531 7.265625 6.46875 C 7.265625 6.296875 7.40625 6.15625 7.578125 6.15625 L 10.066406 6.15625 C 10.242188 6.15625 10.382812 6.296875 10.382812 6.46875 " fill-opacity="1" fill-rule="nonzero"/><path fill="rgb(13.729858%, 12.159729%, 12.548828%)" d="M 10.382812 6.46875 L 10.183594 6.46875 C 10.183594 6.503906 10.171875 6.53125 10.148438 6.550781 C 10.125 6.574219 10.097656 6.585938 10.066406 6.585938 L 7.578125 6.585938 C 7.546875 6.585938 7.519531 6.574219 7.496094 6.550781 C 7.476562 6.53125 7.460938 6.503906 7.460938 6.46875 C 7.460938 6.4375 7.476562 6.410156 7.496094 6.386719 C 7.519531 6.367188 7.546875 6.351562 7.578125 6.351562 L 10.066406 6.351562 C 10.097656 6.351562 10.125 6.367188 10.148438 6.386719 C 10.171875 6.410156 10.183594 6.4375 10.183594 6.46875 L 10.582031 6.46875 C 10.582031 6.328125 10.523438 6.199219 10.429688 6.105469 C 10.335938 6.015625 10.207031 5.957031 10.066406 5.957031 L 7.578125 5.957031 C 7.4375 5.957031 7.308594 6.015625 7.214844 6.105469 C 7.121094 6.199219 7.066406 6.328125 7.066406 6.46875 C 7.066406 6.609375 7.121094 6.738281 7.214844 6.832031 C 7.308594 6.925781 7.4375 6.980469 7.578125 6.980469 L 10.066406 6.980469 C 10.207031 6.980469 10.335938 6.925781 10.429688 6.832031 C 10.523438 6.738281 10.582031 6.609375 10.582031 6.46875 L 10.382812 6.46875 " fill-opacity="1" fill-rule="nonzero"/><path fill="rgb(100%, 100%, 100%)" d="M 9.671875 15.863281 C 9.671875 16.246094 9.347656 16.554688 8.949219 16.554688 L 7.636719 16.554688 C 7.238281 16.554688 6.917969 16.246094 6.917969 15.863281 L 6.917969 14.609375 C 6.917969 14.230469 7.238281 13.917969 7.636719 13.917969 L 8.949219 13.917969 C 9.347656 13.917969 9.671875 14.230469 9.671875 14.609375 L 9.671875 15.863281 " fill-opacity="1" fill-rule="nonzero"/><path fill="rgb(13.729858%, 12.159729%, 12.548828%)" d="M 9.671875 15.863281 L 9.472656 15.863281 C 9.472656 16 9.417969 16.121094 9.320312 16.210938 C 9.226562 16.300781 9.097656 16.359375 8.949219 16.359375 L 7.636719 16.359375 C 7.492188 16.359375 7.359375 16.300781 7.265625 16.210938 C 7.171875 16.121094 7.113281 16 7.113281 15.863281 L 7.113281 14.609375 C 7.113281 14.476562 7.171875 14.355469 7.265625 14.265625 C 7.359375 14.171875 7.492188 14.117188 7.636719 14.117188 L 8.949219 14.117188 C 9.097656 14.117188 9.226562 14.171875 9.320312 14.265625 C 9.417969 14.355469 9.472656 14.476562 9.472656 14.609375 L 9.472656 15.863281 L 9.871094 15.863281 L 9.871094 14.609375 C 9.871094 14.363281 9.765625 14.136719 9.597656 13.980469 C 9.429688 13.820312 9.199219 13.722656 8.949219 13.722656 L 7.636719 13.722656 C 7.386719 13.722656 7.15625 13.820312 6.988281 13.980469 C 6.824219 14.136719 6.71875 14.363281 6.71875 14.609375 L 6.71875 15.863281 C 6.71875 16.113281 6.824219 16.335938 6.988281 16.496094 C 7.15625 16.65625 7.386719 16.753906 7.636719 16.753906 L 8.949219 16.753906 C 9.199219 16.753906 9.429688 16.65625 9.597656 16.496094 C 9.765625 16.335938 9.871094 16.113281 9.871094 15.863281 L 9.671875 15.863281 " fill-opacity="1" fill-rule="nonzero"/><path fill="rgb(100%, 100%, 100%)" d="M 12.980469 15.863281 C 12.980469 16.246094 12.65625 16.554688 12.257812 16.554688 L 10.945312 16.554688 C 10.546875 16.554688 10.222656 16.246094 10.222656 15.863281 L 10.222656 14.609375 C 10.222656 14.230469 10.546875 13.917969 10.945312 13.917969 L 12.257812 13.917969 C 12.65625 13.917969 12.980469 14.230469 12.980469 14.609375 L 12.980469 15.863281 " fill-opacity="1" fill-rule="nonzero"/><path fill="rgb(13.729858%, 12.159729%, 12.548828%)" d="M 12.980469 15.863281 L 12.78125 15.863281 C 12.78125 16 12.726562 16.121094 12.628906 16.210938 C 12.535156 16.300781 12.40625 16.359375 12.257812 16.359375 L 10.945312 16.359375 C 10.800781 16.359375 10.667969 16.300781 10.574219 16.210938 C 10.480469 16.121094 10.421875 16 10.421875 15.863281 L 10.421875 14.609375 C 10.421875 14.476562 10.480469 14.355469 10.574219 14.265625 C 10.667969 14.171875 10.800781 14.117188 10.945312 14.117188 L 12.257812 14.117188 C 12.40625 14.117188 12.535156 14.171875 12.628906 14.265625 C 12.726562 14.355469 12.78125 14.476562 12.78125 14.609375 L 12.78125 15.863281 L 13.179688 15.863281 L 13.179688 14.609375 C 13.179688 14.363281 13.074219 14.136719 12.90625 13.980469 C 12.738281 13.820312 12.507812 13.722656 12.257812 13.722656 L 10.945312 13.722656 C 10.695312 13.722656 10.464844 13.820312 10.296875 13.980469 C 10.132812 14.136719 10.027344 14.363281 10.027344 14.609375 L 10.027344 15.863281 C 10.027344 16.113281 10.132812 16.335938 10.296875 16.496094 C 10.464844 16.65625 10.695312 16.753906 10.945312 16.753906 L 12.257812 16.753906 C 12.507812 16.753906 12.738281 16.65625 12.90625 16.496094 C 13.074219 16.335938 13.179688 16.113281 13.179688 15.863281 L 12.980469 15.863281 " fill-opacity="1" fill-rule="nonzero"/><path fill="rgb(100%, 100%, 100%)" d="M 16.289062 15.863281 C 16.289062 16.246094 15.964844 16.554688 15.566406 16.554688 L 14.253906 16.554688 C 13.855469 16.554688 13.53125 16.246094 13.53125 15.863281 L 13.53125 14.609375 C 13.53125 14.230469 13.855469 13.917969 14.253906 13.917969 L 15.566406 13.917969 C 15.964844 13.917969 16.289062 14.230469 16.289062 14.609375 L 16.289062 15.863281 " fill-opacity="1" fill-rule="nonzero"/><path fill="rgb(13.729858%, 12.159729%, 12.548828%)" d="M 16.289062 15.863281 L 16.089844 15.863281 C 16.089844 16 16.035156 16.121094 15.9375 16.210938 C 15.84375 16.300781 15.714844 16.359375 15.566406 16.359375 L 14.253906 16.359375 C 14.109375 16.359375 13.976562 16.300781 13.882812 16.210938 C 13.789062 16.121094 13.730469 16 13.730469 15.863281 L 13.730469 14.609375 C 13.730469 14.476562 13.789062 14.355469 13.882812 14.265625 C 13.976562 14.171875 14.109375 14.117188 14.253906 14.117188 L 15.566406 14.117188 C 15.714844 14.117188 15.84375 14.171875 15.9375 14.265625 C 16.035156 14.355469 16.089844 14.476562 16.089844 14.609375 L 16.089844 15.863281 L 16.488281 15.863281 L 16.488281 14.609375 C 16.488281 14.363281 16.382812 14.136719 16.214844 13.980469 C 16.046875 13.820312 15.816406 13.722656 15.566406 13.722656 L 14.253906 13.722656 C 14.003906 13.722656 13.773438 13.820312 13.605469 13.980469 C 13.4375 14.136719 13.332031 14.363281 13.335938 14.609375 L 13.335938 15.863281 C 13.332031 16.113281 13.4375 16.335938 13.605469 16.496094 C 13.773438 16.65625 14.003906 16.753906 14.253906 16.753906 L 15.566406 16.753906 C 15.816406 16.753906 16.046875 16.65625 16.214844 16.496094 C 16.382812 16.335938 16.488281 16.113281 16.488281 15.863281 L 16.289062 15.863281 " fill-opacity="1" fill-rule="nonzero"/><path fill="rgb(100%, 100%, 100%)" d="M 19.597656 15.863281 C 19.597656 16.246094 19.273438 16.554688 18.875 16.554688 L 17.5625 16.554688 C 17.164062 16.554688 16.839844 16.246094 16.839844 15.863281 L 16.839844 14.609375 C 16.839844 14.230469 17.164062 13.917969 17.5625 13.917969 L 18.875 13.917969 C 19.273438 13.917969 19.597656 14.230469 19.597656 14.609375 L 19.597656 15.863281 " fill-opacity="1" fill-rule="nonzero"/><path fill="rgb(13.729858%, 12.159729%, 12.548828%)" d="M 19.597656 15.863281 L 19.398438 15.863281 C 19.398438 16 19.339844 16.121094 19.246094 16.210938 C 19.152344 16.300781 19.023438 16.359375 18.875 16.359375 L 17.5625 16.359375 C 17.414062 16.359375 17.285156 16.300781 17.191406 16.210938 C 17.097656 16.121094 17.039062 16 17.039062 15.863281 L 17.039062 14.609375 C 17.039062 14.476562 17.097656 14.355469 17.191406 14.265625 C 17.285156 14.171875 17.414062 14.117188 17.5625 14.117188 L 18.875 14.117188 C 19.023438 14.117188 19.152344 14.171875 19.246094 14.265625 C 19.339844 14.355469 19.398438 14.476562 19.398438 14.609375 L 19.398438 15.863281 L 19.796875 15.863281 L 19.796875 14.609375 C 19.796875 14.363281 19.691406 14.136719 19.523438 13.980469 C 19.355469 13.820312 19.125 13.722656 18.875 13.722656 L 17.5625 13.722656 C 17.3125 13.722656 17.082031 13.820312 16.914062 13.980469 C 16.746094 14.136719 16.640625 14.363281 16.640625 14.609375 L 16.640625 15.863281 C 16.640625 16.113281 16.746094 16.335938 16.914062 16.496094 C 17.082031 16.65625 17.3125 16.753906 17.5625 16.753906 L 18.875 16.753906 C 19.125 16.753906 19.355469 16.65625 19.523438 16.496094 C 19.691406 16.335938 19.796875 16.113281 19.796875 15.863281 L 19.597656 15.863281 " fill-opacity="1" fill-rule="nonzero"/><path fill="rgb(100%, 100%, 100%)" d="M 9.671875 19.132812 C 9.671875 19.515625 9.347656 19.824219 8.949219 19.824219 L 7.636719 19.824219 C 7.238281 19.824219 6.917969 19.515625 6.917969 19.132812 L 6.917969 17.878906 C 6.917969 17.496094 7.238281 17.1875 7.636719 17.1875 L 8.949219 17.1875 C 9.347656 17.1875 9.671875 17.496094 9.671875 17.878906 L 9.671875 19.132812 " fill-opacity="1" fill-rule="nonzero"/><path fill="rgb(13.729858%, 12.159729%, 12.548828%)" d="M 9.671875 19.132812 L 9.472656 19.132812 C 9.472656 19.269531 9.417969 19.390625 9.320312 19.480469 C 9.226562 19.570312 9.097656 19.628906 8.949219 19.628906 L 7.636719 19.628906 C 7.492188 19.628906 7.359375 19.570312 7.265625 19.480469 C 7.171875 19.390625 7.113281 19.269531 7.113281 19.132812 L 7.113281 17.878906 C 7.113281 17.746094 7.171875 17.625 7.265625 17.53125 C 7.359375 17.441406 7.492188 17.386719 7.636719 17.386719 L 8.949219 17.386719 C 9.097656 17.386719 9.226562 17.441406 9.320312 17.53125 C 9.417969 17.625 9.472656 17.746094 9.472656 17.878906 L 9.472656 19.132812 L 9.871094 19.132812 L 9.871094 17.878906 C 9.871094 17.632812 9.765625 17.40625 9.597656 17.246094 C 9.429688 17.089844 9.199219 16.988281 8.949219 16.988281 L 7.636719 16.988281 C 7.386719 16.988281 7.15625 17.089844 6.988281 17.246094 C 6.824219 17.40625 6.71875 17.632812 6.71875 17.878906 L 6.71875 19.132812 C 6.71875 19.382812 6.824219 19.605469 6.988281 19.765625 C 7.15625 19.925781 7.386719 20.023438 7.636719 20.023438 L 8.949219 20.023438 C 9.199219 20.023438 9.429688 19.925781 9.597656 19.765625 C 9.765625 19.605469 9.871094 19.382812 9.871094 19.132812 L 9.671875 19.132812 " fill-opacity="1" fill-rule="nonzero"/><path fill="rgb(100%, 100%, 100%)" d="M 12.980469 19.132812 C 12.980469 19.515625 12.65625 19.824219 12.257812 19.824219 L 10.945312 19.824219 C 10.546875 19.824219 10.222656 19.515625 10.222656 19.132812 L 10.222656 17.878906 C 10.222656 17.496094 10.546875 17.1875 10.945312 17.1875 L 12.257812 17.1875 C 12.65625 17.1875 12.980469 17.496094 12.980469 17.878906 L 12.980469 19.132812 " fill-opacity="1" fill-rule="nonzero"/><path fill="rgb(13.729858%, 12.159729%, 12.548828%)" d="M 12.980469 19.132812 L 12.78125 19.132812 C 12.78125 19.269531 12.726562 19.390625 12.628906 19.480469 C 12.535156 19.570312 12.40625 19.628906 12.257812 19.628906 L 10.945312 19.628906 C 10.800781 19.628906 10.667969 19.570312 10.574219 19.480469 C 10.480469 19.390625 10.421875 19.269531 10.421875 19.132812 L 10.421875 17.878906 C 10.421875 17.746094 10.480469 17.625 10.574219 17.53125 C 10.667969 17.441406 10.800781 17.386719 10.945312 17.386719 L 12.257812 17.386719 C 12.40625 17.386719 12.535156 17.441406 12.628906 17.53125 C 12.726562 17.625 12.78125 17.746094 12.78125 17.878906 L 12.78125 19.132812 L 13.179688 19.132812 L 13.179688 17.878906 C 13.179688 17.632812 13.074219 17.40625 12.90625 17.246094 C 12.738281 17.089844 12.507812 16.988281 12.257812 16.988281 L 10.945312 16.988281 C 10.695312 16.988281 10.464844 17.089844 10.296875 17.246094 C 10.132812 17.40625 10.027344 17.632812 10.027344 17.878906 L 10.027344 19.132812 C 10.027344 19.382812 10.132812 19.605469 10.296875 19.765625 C 10.464844 19.925781 10.695312 20.023438 10.945312 20.023438 L 12.257812 20.023438 C 12.507812 20.023438 12.738281 19.925781 12.90625 19.765625 C 13.074219 19.605469 13.179688 19.382812 13.179688 19.132812 L 12.980469 19.132812 " fill-opacity="1" fill-rule="nonzero"/><path fill="rgb(100%, 100%, 100%)" d="M 16.289062 19.132812 C 16.289062 19.515625 15.964844 19.824219 15.566406 19.824219 L 14.253906 19.824219 C 13.855469 19.824219 13.53125 19.515625 13.53125 19.132812 L 13.53125 17.878906 C 13.53125 17.496094 13.855469 17.1875 14.253906 17.1875 L 15.566406 17.1875 C 15.964844 17.1875 16.289062 17.496094 16.289062 17.878906 L 16.289062 19.132812 " fill-opacity="1" fill-rule="nonzero"/><path fill="rgb(13.729858%, 12.159729%, 12.548828%)" d="M 16.289062 19.132812 L 16.089844 19.132812 C 16.089844 19.269531 16.035156 19.390625 15.9375 19.480469 C 15.84375 19.570312 15.714844 19.628906 15.566406 19.628906 L 14.253906 19.628906 C 14.109375 19.628906 13.976562 19.570312 13.882812 19.480469 C 13.789062 19.390625 13.730469 19.269531 13.730469 19.132812 L 13.730469 17.878906 C 13.730469 17.746094 13.789062 17.625 13.882812 17.53125 C 13.976562 17.441406 14.109375 17.386719 14.253906 17.386719 L 15.566406 17.386719 C 15.714844 17.386719 15.84375 17.441406 15.9375 17.53125 C 16.035156 17.625 16.089844 17.746094 16.089844 17.878906 L 16.089844 19.132812 L 16.488281 19.132812 L 16.488281 17.878906 C 16.488281 17.632812 16.382812 17.40625 16.214844 17.246094 C 16.046875 17.089844 15.816406 16.988281 15.566406 16.988281 L 14.253906 16.988281 C 14.003906 16.988281 13.773438 17.089844 13.605469 17.246094 C 13.4375 17.40625 13.332031 17.632812 13.335938 17.878906 L 13.335938 19.132812 C 13.332031 19.382812 13.4375 19.605469 13.605469 19.765625 C 13.773438 19.925781 14.003906 20.023438 14.253906 20.023438 L 15.566406 20.023438 C 15.816406 20.023438 16.046875 19.925781 16.214844 19.765625 C 16.382812 19.605469 16.488281 19.382812 16.488281 19.132812 L 16.289062 19.132812 " fill-opacity="1" fill-rule="nonzero"/><path fill="rgb(100%, 100%, 100%)" d="M 19.597656 19.132812 C 19.597656 19.515625 19.273438 19.824219 18.875 19.824219 L 17.5625 19.824219 C 17.164062 19.824219 16.839844 19.515625 16.839844 19.132812 L 16.839844 17.878906 C 16.839844 17.496094 17.164062 17.1875 17.5625 17.1875 L 18.875 17.1875 C 19.273438 17.1875 19.597656 17.496094 19.597656 17.878906 L 19.597656 19.132812 " fill-opacity="1" fill-rule="nonzero"/><path fill="rgb(13.729858%, 12.159729%, 12.548828%)" d="M 19.597656 19.132812 L 19.398438 19.132812 C 19.398438 19.269531 19.339844 19.390625 19.246094 19.480469 C 19.152344 19.570312 19.023438 19.628906 18.875 19.628906 L 17.5625 19.628906 C 17.414062 19.628906 17.285156 19.570312 17.191406 19.480469 C 17.097656 19.390625 17.039062 19.269531 17.039062 19.132812 L 17.039062 17.878906 C 17.039062 17.746094 17.097656 17.625 17.191406 17.53125 C 17.285156 17.441406 17.414062 17.386719 17.5625 17.386719 L 18.875 17.386719 C 19.023438 17.386719 19.152344 17.441406 19.246094 17.53125 C 19.339844 17.625 19.398438 17.746094 19.398438 17.878906 L 19.398438 19.132812 L 19.796875 19.132812 L 19.796875 17.878906 C 19.796875 17.632812 19.691406 17.40625 19.523438 17.246094 C 19.355469 17.089844 19.125 16.988281 18.875 16.988281 L 17.5625 16.988281 C 17.3125 16.988281 17.082031 17.089844 16.914062 17.246094 C 16.746094 17.40625 16.640625 17.632812 16.640625 17.878906 L 16.640625 19.132812 C 16.640625 19.382812 16.746094 19.605469 16.914062 19.765625 C 17.082031 19.925781 17.3125 20.023438 17.5625 20.023438 L 18.875 20.023438 C 19.125 20.023438 19.355469 19.925781 19.523438 19.765625 C 19.691406 19.605469 19.796875 19.382812 19.796875 19.132812 L 19.597656 19.132812 " fill-opacity="1" fill-rule="nonzero"/><path fill="rgb(100%, 100%, 100%)" d="M 9.671875 22.402344 C 9.671875 22.785156 9.347656 23.09375 8.949219 23.09375 L 7.636719 23.09375 C 7.238281 23.09375 6.917969 22.785156 6.917969 22.402344 L 6.917969 21.148438 C 6.917969 20.765625 7.238281 20.457031 7.636719 20.457031 L 8.949219 20.457031 C 9.347656 20.457031 9.671875 20.765625 9.671875 21.148438 L 9.671875 22.402344 " fill-opacity="1" fill-rule="nonzero"/><path fill="rgb(13.729858%, 12.159729%, 12.548828%)" d="M 9.671875 22.402344 L 9.472656 22.402344 C 9.472656 22.539062 9.417969 22.65625 9.320312 22.75 C 9.226562 22.839844 9.097656 22.894531 8.949219 22.894531 L 7.636719 22.894531 C 7.492188 22.894531 7.359375 22.839844 7.265625 22.75 C 7.171875 22.65625 7.113281 22.539062 7.113281 22.402344 L 7.113281 21.148438 C 7.113281 21.015625 7.171875 20.894531 7.265625 20.800781 C 7.359375 20.710938 7.492188 20.65625 7.636719 20.65625 L 8.949219 20.65625 C 9.097656 20.65625 9.226562 20.710938 9.320312 20.800781 C 9.417969 20.894531 9.472656 21.011719 9.472656 21.148438 L 9.472656 22.402344 L 9.871094 22.402344 L 9.871094 21.148438 C 9.871094 20.902344 9.765625 20.675781 9.597656 20.515625 C 9.429688 20.355469 9.199219 20.257812 8.949219 20.257812 L 7.636719 20.257812 C 7.386719 20.257812 7.15625 20.355469 6.988281 20.515625 C 6.824219 20.675781 6.71875 20.902344 6.71875 21.148438 L 6.71875 22.402344 C 6.71875 22.648438 6.824219 22.875 6.988281 23.035156 C 7.15625 23.195312 7.386719 23.292969 7.636719 23.292969 L 8.949219 23.292969 C 9.199219 23.292969 9.429688 23.195312 9.597656 23.035156 C 9.765625 22.875 9.871094 22.648438 9.871094 22.402344 L 9.671875 22.402344 " fill-opacity="1" fill-rule="nonzero"/><path fill="rgb(100%, 100%, 100%)" d="M 12.980469 22.402344 C 12.980469 22.785156 12.65625 23.09375 12.257812 23.09375 L 10.945312 23.09375 C 10.546875 23.09375 10.222656 22.785156 10.222656 22.402344 L 10.222656 21.148438 C 10.222656 20.765625 10.546875 20.457031 10.945312 20.457031 L 12.257812 20.457031 C 12.65625 20.457031 12.980469 20.765625 12.980469 21.148438 L 12.980469 22.402344 " fill-opacity="1" fill-rule="nonzero"/><path fill="rgb(13.729858%, 12.159729%, 12.548828%)" d="M 12.980469 22.402344 L 12.78125 22.402344 C 12.78125 22.539062 12.726562 22.65625 12.628906 22.75 C 12.535156 22.839844 12.40625 22.894531 12.257812 22.894531 L 10.945312 22.894531 C 10.800781 22.894531 10.667969 22.839844 10.574219 22.75 C 10.480469 22.65625 10.421875 22.539062 10.421875 22.402344 L 10.421875 21.148438 C 10.421875 21.015625 10.480469 20.894531 10.574219 20.800781 C 10.667969 20.710938 10.800781 20.65625 10.945312 20.65625 L 12.257812 20.65625 C 12.40625 20.65625 12.535156 20.710938 12.628906 20.800781 C 12.726562 20.894531 12.78125 21.015625 12.78125 21.148438 L 12.78125 22.402344 L 13.179688 22.402344 L 13.179688 21.148438 C 13.179688 20.902344 13.074219 20.675781 12.90625 20.515625 C 12.738281 20.355469 12.507812 20.257812 12.257812 20.257812 L 10.945312 20.257812 C 10.695312 20.257812 10.464844 20.355469 10.296875 20.515625 C 10.132812 20.675781 10.027344 20.902344 10.027344 21.148438 L 10.027344 22.402344 C 10.027344 22.648438 10.132812 22.875 10.296875 23.035156 C 10.464844 23.195312 10.695312 23.292969 10.945312 23.292969 L 12.257812 23.292969 C 12.507812 23.292969 12.738281 23.195312 12.90625 23.035156 C 13.074219 22.875 13.179688 22.648438 13.179688 22.402344 L 12.980469 22.402344 " fill-opacity="1" fill-rule="nonzero"/><path fill="rgb(100%, 100%, 100%)" d="M 16.289062 22.402344 C 16.289062 22.785156 15.964844 23.09375 15.566406 23.09375 L 14.253906 23.09375 C 13.855469 23.09375 13.53125 22.785156 13.53125 22.402344 L 13.53125 21.148438 C 13.53125 20.765625 13.855469 20.457031 14.253906 20.457031 L 15.566406 20.457031 C 15.964844 20.457031 16.289062 20.765625 16.289062 21.148438 L 16.289062 22.402344 " fill-opacity="1" fill-rule="nonzero"/><path fill="rgb(13.729858%, 12.159729%, 12.548828%)" d="M 16.289062 22.402344 L 16.089844 22.402344 C 16.089844 22.539062 16.035156 22.65625 15.9375 22.75 C 15.84375 22.839844 15.714844 22.894531 15.566406 22.894531 L 14.253906 22.894531 C 14.109375 22.894531 13.976562 22.839844 13.882812 22.75 C 13.789062 22.65625 13.730469 22.539062 13.730469 22.402344 L 13.730469 21.148438 C 13.730469 21.011719 13.789062 20.894531 13.882812 20.800781 C 13.976562 20.710938 14.109375 20.65625 14.253906 20.65625 L 15.566406 20.65625 C 15.714844 20.65625 15.84375 20.710938 15.9375 20.800781 C 16.035156 20.894531 16.089844 21.011719 16.089844 21.148438 L 16.089844 22.402344 L 16.488281 22.402344 L 16.488281 21.148438 C 16.488281 20.902344 16.382812 20.675781 16.214844 20.515625 C 16.046875 20.355469 15.816406 20.257812 15.566406 20.257812 L 14.253906 20.257812 C 14.003906 20.257812 13.773438 20.355469 13.605469 20.515625 C 13.4375 20.675781 13.332031 20.902344 13.335938 21.148438 L 13.335938 22.402344 C 13.332031 22.648438 13.4375 22.875 13.605469 23.035156 C 13.773438 23.195312 14.003906 23.292969 14.253906 23.292969 L 15.566406 23.292969 C 15.816406 23.292969 16.046875 23.195312 16.214844 23.035156 C 16.382812 22.875 16.488281 22.648438 16.488281 22.402344 L 16.289062 22.402344 " fill-opacity="1" fill-rule="nonzero"/><path fill="rgb(100%, 100%, 100%)" d="M 9.671875 25.671875 C 9.671875 26.054688 9.347656 26.363281 8.949219 26.363281 L 7.636719 26.363281 C 7.238281 26.363281 6.917969 26.054688 6.917969 25.671875 L 6.917969 24.417969 C 6.917969 24.035156 7.238281 23.726562 7.636719 23.726562 L 8.949219 23.726562 C 9.347656 23.726562 9.671875 24.035156 9.671875 24.417969 L 9.671875 25.671875 " fill-opacity="1" fill-rule="nonzero"/><path fill="rgb(13.729858%, 12.159729%, 12.548828%)" d="M 9.671875 25.671875 L 9.472656 25.671875 C 9.472656 25.804688 9.417969 25.925781 9.320312 26.019531 C 9.226562 26.109375 9.097656 26.164062 8.949219 26.164062 L 7.636719 26.164062 C 7.492188 26.164062 7.359375 26.109375 7.265625 26.019531 C 7.171875 25.925781 7.113281 25.804688 7.113281 25.671875 L 7.113281 24.417969 C 7.113281 24.28125 7.171875 24.160156 7.265625 24.070312 C 7.359375 23.980469 7.492188 23.925781 7.636719 23.925781 L 8.949219 23.925781 C 9.097656 23.925781 9.226562 23.980469 9.320312 24.070312 C 9.417969 24.160156 9.472656 24.28125 9.472656 24.417969 L 9.472656 25.671875 L 9.871094 25.671875 L 9.871094 24.417969 C 9.871094 24.171875 9.765625 23.945312 9.597656 23.785156 C 9.429688 23.625 9.199219 23.527344 8.949219 23.527344 L 7.636719 23.527344 C 7.386719 23.527344 7.15625 23.625 6.988281 23.785156 C 6.824219 23.945312 6.71875 24.171875 6.71875 24.417969 L 6.71875 25.671875 C 6.71875 25.917969 6.824219 26.144531 6.988281 26.304688 C 7.15625 26.460938 7.386719 26.5625 7.636719 26.5625 L 8.949219 26.5625 C 9.199219 26.5625 9.429688 26.460938 9.597656 26.304688 C 9.765625 26.144531 9.871094 25.917969 9.871094 25.671875 L 9.671875 25.671875 " fill-opacity="1" fill-rule="nonzero"/><path fill="rgb(100%, 100%, 100%)" d="M 12.980469 25.671875 C 12.980469 26.054688 12.65625 26.363281 12.257812 26.363281 L 10.945312 26.363281 C 10.546875 26.363281 10.222656 26.054688 10.222656 25.671875 L 10.222656 24.417969 C 10.222656 24.035156 10.546875 23.726562 10.945312 23.726562 L 12.257812 23.726562 C 12.65625 23.726562 12.980469 24.035156 12.980469 24.417969 L 12.980469 25.671875 " fill-opacity="1" fill-rule="nonzero"/><path fill="rgb(13.729858%, 12.159729%, 12.548828%)" d="M 12.980469 25.671875 L 12.78125 25.671875 C 12.78125 25.804688 12.726562 25.925781 12.628906 26.019531 C 12.535156 26.109375 12.40625 26.164062 12.257812 26.164062 L 10.945312 26.164062 C 10.800781 26.164062 10.667969 26.109375 10.574219 26.019531 C 10.480469 25.925781 10.421875 25.804688 10.421875 25.671875 L 10.421875 24.417969 C 10.421875 24.28125 10.480469 24.160156 10.574219 24.070312 C 10.667969 23.980469 10.800781 23.925781 10.945312 23.925781 L 12.257812 23.925781 C 12.40625 23.925781 12.535156 23.980469 12.628906 24.070312 C 12.726562 24.160156 12.78125 24.28125 12.78125 24.417969 L 12.78125 25.671875 L 13.179688 25.671875 L 13.179688 24.417969 C 13.179688 24.171875 13.074219 23.945312 12.90625 23.785156 C 12.738281 23.625 12.507812 23.527344 12.257812 23.527344 L 10.945312 23.527344 C 10.695312 23.527344 10.464844 23.625 10.296875 23.785156 C 10.132812 23.945312 10.027344 24.171875 10.027344 24.417969 L 10.027344 25.671875 C 10.027344 25.917969 10.132812 26.144531 10.296875 26.304688 C 10.464844 26.460938 10.695312 26.5625 10.945312 26.5625 L 12.257812 26.5625 C 12.507812 26.5625 12.738281 26.460938 12.90625 26.304688 C 13.074219 26.144531 13.179688 25.917969 13.179688 25.671875 L 12.980469 25.671875 " fill-opacity="1" fill-rule="nonzero"/><path fill="rgb(100%, 100%, 100%)" d="M 16.289062 25.671875 C 16.289062 26.054688 15.964844 26.363281 15.566406 26.363281 L 14.253906 26.363281 C 13.855469 26.363281 13.53125 26.054688 13.53125 25.671875 L 13.53125 24.417969 C 13.53125 24.035156 13.855469 23.726562 14.253906 23.726562 L 15.566406 23.726562 C 15.964844 23.726562 16.289062 24.035156 16.289062 24.417969 L 16.289062 25.671875 " fill-opacity="1" fill-rule="nonzero"/><path fill="rgb(13.729858%, 12.159729%, 12.548828%)" d="M 16.289062 25.671875 L 16.089844 25.671875 C 16.089844 25.804688 16.035156 25.925781 15.9375 26.019531 C 15.84375 26.109375 15.714844 26.164062 15.566406 26.164062 L 14.253906 26.164062 C 14.109375 26.164062 13.976562 26.109375 13.882812 26.019531 C 13.789062 25.925781 13.730469 25.804688 13.730469 25.671875 L 13.730469 24.417969 C 13.730469 24.28125 13.789062 24.160156 13.882812 24.070312 C 13.976562 23.980469 14.109375 23.925781 14.253906 23.925781 L 15.566406 23.925781 C 15.714844 23.925781 15.84375 23.980469 15.9375 24.070312 C 16.035156 24.160156 16.089844 24.28125 16.089844 24.417969 L 16.089844 25.671875 L 16.488281 25.671875 L 16.488281 24.417969 C 16.488281 24.171875 16.382812 23.945312 16.214844 23.785156 C 16.046875 23.625 15.816406 23.527344 15.566406 23.527344 L 14.253906 23.527344 C 14.003906 23.527344 13.773438 23.625 13.605469 23.785156 C 13.4375 23.945312 13.332031 24.171875 13.335938 24.417969 L 13.335938 25.671875 C 13.332031 25.917969 13.4375 26.144531 13.605469 26.304688 C 13.773438 26.460938 14.003906 26.5625 14.253906 26.5625 L 15.566406 26.5625 C 15.816406 26.5625 16.046875 26.460938 16.214844 26.304688 C 16.382812 26.144531 16.488281 25.917969 16.488281 25.671875 L 16.289062 25.671875 " fill-opacity="1" fill-rule="nonzero"/><path fill="rgb(100%, 100%, 100%)" d="M 19.597656 25.671875 C 19.597656 26.054688 19.273438 26.363281 18.875 26.363281 L 17.5625 26.363281 C 17.164062 26.363281 16.839844 26.054688 16.839844 25.671875 L 16.839844 21.148438 C 16.839844 20.765625 17.164062 20.457031 17.5625 20.457031 L 18.875 20.457031 C 19.273438 20.457031 19.597656 20.765625 19.597656 21.148438 L 19.597656 25.671875 " fill-opacity="1" fill-rule="nonzero"/><path fill="rgb(13.729858%, 12.159729%, 12.548828%)" d="M 19.597656 25.671875 L 19.398438 25.671875 C 19.398438 25.804688 19.339844 25.925781 19.246094 26.019531 C 19.152344 26.109375 19.023438 26.164062 18.875 26.164062 L 17.5625 26.164062 C 17.414062 26.164062 17.285156 26.109375 17.191406 26.019531 C 17.097656 25.925781 17.039062 25.804688 17.039062 25.671875 L 17.039062 21.148438 C 17.039062 21.015625 17.097656 20.894531 17.191406 20.800781 C 17.285156 20.710938 17.414062 20.65625 17.5625 20.65625 L 18.875 20.65625 C 19.023438 20.65625 19.152344 20.710938 19.246094 20.800781 C 19.339844 20.894531 19.398438 21.015625 19.398438 21.148438 L 19.398438 25.671875 L 19.796875 25.671875 L 19.796875 21.148438 C 19.796875 20.902344 19.691406 20.675781 19.523438 20.515625 C 19.355469 20.355469 19.125 20.257812 18.875 20.257812 L 17.5625 20.257812 C 17.3125 20.257812 17.082031 20.355469 16.914062 20.515625 C 16.746094 20.675781 16.640625 20.902344 16.640625 21.148438 L 16.640625 25.671875 C 16.640625 25.917969 16.746094 26.144531 16.914062 26.304688 C 17.082031 26.460938 17.3125 26.5625 17.5625 26.5625 L 18.875 26.5625 C 19.125 26.5625 19.355469 26.460938 19.523438 26.304688 C 19.691406 26.144531 19.796875 25.917969 19.796875 25.671875 L 19.597656 25.671875 " fill-opacity="1" fill-rule="nonzero"/><path fill="rgb(100%, 100%, 100%)" d="M 9.664062 12.71875 C 9.664062 13.035156 9.34375 13.296875 8.945312 13.296875 L 7.636719 13.296875 C 7.238281 13.296875 6.917969 13.035156 6.917969 12.71875 L 6.917969 12.683594 C 6.917969 12.367188 7.238281 12.105469 7.636719 12.105469 L 8.945312 12.105469 C 9.34375 12.105469 9.664062 12.367188 9.664062 12.683594 L 9.664062 12.71875 " fill-opacity="1" fill-rule="nonzero"/><path fill="rgb(13.729858%, 12.159729%, 12.548828%)" d="M 9.664062 12.71875 L 9.464844 12.71875 C 9.464844 12.765625 9.453125 12.808594 9.433594 12.851562 C 9.398438 12.914062 9.335938 12.976562 9.253906 13.023438 C 9.167969 13.070312 9.0625 13.097656 8.945312 13.097656 L 7.636719 13.097656 C 7.480469 13.097656 7.34375 13.046875 7.253906 12.972656 C 7.207031 12.9375 7.171875 12.894531 7.148438 12.851562 C 7.125 12.808594 7.113281 12.765625 7.113281 12.71875 L 7.113281 12.683594 C 7.113281 12.636719 7.125 12.59375 7.148438 12.550781 C 7.183594 12.488281 7.246094 12.425781 7.328125 12.378906 C 7.414062 12.332031 7.519531 12.304688 7.636719 12.304688 L 8.945312 12.304688 C 9.101562 12.304688 9.238281 12.355469 9.328125 12.429688 C 9.375 12.46875 9.410156 12.507812 9.433594 12.550781 C 9.453125 12.59375 9.464844 12.636719 9.464844 12.683594 L 9.464844 12.71875 L 9.863281 12.71875 L 9.863281 12.683594 C 9.863281 12.570312 9.835938 12.464844 9.785156 12.367188 C 9.707031 12.226562 9.589844 12.109375 9.441406 12.03125 C 9.296875 11.953125 9.125 11.910156 8.945312 11.910156 L 7.636719 11.910156 C 7.394531 11.910156 7.171875 11.988281 7.003906 12.121094 C 6.917969 12.191406 6.847656 12.273438 6.796875 12.367188 C 6.746094 12.464844 6.71875 12.570312 6.71875 12.683594 L 6.71875 12.71875 C 6.71875 12.832031 6.746094 12.9375 6.796875 13.035156 C 6.871094 13.175781 6.992188 13.292969 7.136719 13.371094 C 7.285156 13.449219 7.453125 13.492188 7.636719 13.492188 L 8.945312 13.492188 C 9.1875 13.492188 9.410156 13.414062 9.578125 13.28125 C 9.664062 13.210938 9.734375 13.128906 9.785156 13.035156 C 9.835938 12.9375 9.863281 12.832031 9.863281 12.71875 L 9.664062 12.71875 " fill-opacity="1" fill-rule="nonzero"/><path fill="rgb(100%, 100%, 100%)" d="M 12.964844 12.71875 C 12.964844 13.035156 12.644531 13.296875 12.246094 13.296875 L 10.9375 13.296875 C 10.539062 13.296875 10.21875 13.035156 10.21875 12.71875 L 10.21875 12.683594 C 10.21875 12.367188 10.539062 12.105469 10.9375 12.105469 L 12.246094 12.105469 C 12.644531 12.105469 12.964844 12.367188 12.964844 12.683594 L 12.964844 12.71875 " fill-opacity="1" fill-rule="nonzero"/><path fill="rgb(13.729858%, 12.159729%, 12.548828%)" d="M 12.964844 12.71875 L 12.765625 12.71875 C 12.765625 12.765625 12.753906 12.808594 12.734375 12.851562 C 12.699219 12.914062 12.636719 12.976562 12.554688 13.023438 C 12.46875 13.070312 12.363281 13.097656 12.246094 13.097656 L 10.9375 13.097656 C 10.78125 13.097656 10.644531 13.046875 10.554688 12.972656 C 10.507812 12.9375 10.472656 12.894531 10.449219 12.851562 C 10.425781 12.808594 10.414062 12.765625 10.414062 12.71875 L 10.414062 12.683594 C 10.414062 12.636719 10.425781 12.59375 10.449219 12.550781 C 10.484375 12.488281 10.542969 12.425781 10.628906 12.378906 C 10.714844 12.332031 10.820312 12.304688 10.9375 12.304688 L 12.246094 12.304688 C 12.402344 12.304688 12.539062 12.355469 12.628906 12.429688 C 12.675781 12.46875 12.710938 12.507812 12.734375 12.550781 C 12.753906 12.59375 12.765625 12.636719 12.765625 12.683594 L 12.765625 12.71875 L 13.164062 12.71875 L 13.164062 12.683594 C 13.164062 12.570312 13.136719 12.464844 13.085938 12.367188 C 13.007812 12.226562 12.890625 12.109375 12.742188 12.03125 C 12.597656 11.953125 12.425781 11.910156 12.246094 11.910156 L 10.9375 11.910156 C 10.695312 11.910156 10.472656 11.988281 10.304688 12.121094 C 10.21875 12.191406 10.148438 12.273438 10.097656 12.367188 C 10.046875 12.464844 10.019531 12.574219 10.019531 12.683594 L 10.019531 12.71875 C 10.019531 12.832031 10.046875 12.9375 10.097656 13.035156 C 10.171875 13.175781 10.292969 13.292969 10.4375 13.371094 C 10.585938 13.449219 10.753906 13.492188 10.9375 13.492188 L 12.246094 13.492188 C 12.488281 13.492188 12.710938 13.414062 12.878906 13.28125 C 12.964844 13.210938 13.035156 13.128906 13.085938 13.035156 C 13.136719 12.9375 13.164062 12.832031 13.164062 12.71875 L 12.964844 12.71875 " fill-opacity="1" fill-rule="nonzero"/><path fill="rgb(100%, 100%, 100%)" d="M 16.265625 12.71875 C 16.265625 13.035156 15.945312 13.296875 15.546875 13.296875 L 14.238281 13.296875 C 13.839844 13.296875 13.515625 13.035156 13.515625 12.71875 L 13.515625 12.683594 C 13.515625 12.367188 13.839844 12.105469 14.238281 12.105469 L 15.546875 12.105469 C 15.945312 12.105469 16.265625 12.367188 16.265625 12.683594 L 16.265625 12.71875 " fill-opacity="1" fill-rule="nonzero"/><path fill="rgb(13.729858%, 12.159729%, 12.548828%)" d="M 16.265625 12.71875 L 16.066406 12.71875 C 16.066406 12.765625 16.054688 12.808594 16.035156 12.851562 C 16 12.914062 15.9375 12.976562 15.855469 13.023438 C 15.769531 13.070312 15.664062 13.097656 15.546875 13.097656 L 14.238281 13.097656 C 14.082031 13.097656 13.945312 13.046875 13.851562 12.972656 C 13.808594 12.9375 13.773438 12.894531 13.75 12.851562 C 13.726562 12.808594 13.714844 12.765625 13.714844 12.71875 L 13.714844 12.683594 C 13.714844 12.636719 13.726562 12.59375 13.75 12.550781 C 13.785156 12.488281 13.84375 12.425781 13.929688 12.378906 C 14.015625 12.332031 14.121094 12.304688 14.238281 12.304688 L 15.546875 12.304688 C 15.703125 12.304688 15.839844 12.355469 15.929688 12.429688 C 15.976562 12.46875 16.011719 12.507812 16.035156 12.550781 C 16.054688 12.59375 16.066406 12.636719 16.066406 12.683594 L 16.066406 12.71875 L 16.464844 12.71875 L 16.464844 12.683594 C 16.464844 12.570312 16.4375 12.464844 16.386719 12.367188 C 16.308594 12.226562 16.1875 12.109375 16.042969 12.03125 C 15.898438 11.953125 15.726562 11.910156 15.546875 11.910156 L 14.238281 11.910156 C 13.996094 11.910156 13.773438 11.988281 13.605469 12.121094 C 13.519531 12.191406 13.449219 12.273438 13.398438 12.367188 C 13.347656 12.464844 13.320312 12.570312 13.320312 12.683594 L 13.320312 12.71875 C 13.320312 12.832031 13.347656 12.9375 13.398438 13.035156 C 13.472656 13.175781 13.59375 13.292969 13.738281 13.371094 C 13.886719 13.449219 14.054688 13.492188 14.238281 13.492188 L 15.546875 13.492188 C 15.789062 13.492188 16.011719 13.414062 16.179688 13.28125 C 16.265625 13.210938 16.335938 13.128906 16.386719 13.035156 C 16.4375 12.9375 16.464844 12.832031 16.464844 12.71875 L 16.265625 12.71875 " fill-opacity="1" fill-rule="nonzero"/><path fill="rgb(100%, 100%, 100%)" d="M 19.566406 12.71875 C 19.566406 13.035156 19.246094 13.296875 18.847656 13.296875 L 17.539062 13.296875 C 17.140625 13.296875 16.816406 13.035156 16.816406 12.71875 L 16.816406 12.683594 C 16.816406 12.367188 17.140625 12.105469 17.539062 12.105469 L 18.847656 12.105469 C 19.246094 12.105469 19.566406 12.367188 19.566406 12.683594 L 19.566406 12.71875 " fill-opacity="1" fill-rule="nonzero"/><path fill="rgb(13.729858%, 12.159729%, 12.548828%)" d="M 19.566406 12.71875 L 19.367188 12.71875 C 19.367188 12.765625 19.355469 12.808594 19.335938 12.851562 C 19.300781 12.914062 19.238281 12.976562 19.152344 13.023438 C 19.070312 13.070312 18.964844 13.097656 18.847656 13.097656 L 17.539062 13.097656 C 17.382812 13.097656 17.246094 13.046875 17.152344 12.972656 C 17.109375 12.9375 17.074219 12.894531 17.050781 12.851562 C 17.027344 12.808594 17.015625 12.765625 17.015625 12.71875 L 17.015625 12.683594 C 17.015625 12.636719 17.027344 12.59375 17.050781 12.550781 C 17.085938 12.488281 17.144531 12.425781 17.230469 12.378906 C 17.316406 12.332031 17.421875 12.304688 17.539062 12.304688 L 18.847656 12.304688 C 19.003906 12.304688 19.140625 12.355469 19.230469 12.429688 C 19.277344 12.46875 19.3125 12.507812 19.335938 12.550781 C 19.355469 12.59375 19.367188 12.636719 19.367188 12.683594 L 19.367188 12.71875 L 19.765625 12.71875 L 19.765625 12.683594 C 19.765625 12.570312 19.738281 12.464844 19.6875 12.367188 C 19.609375 12.226562 19.488281 12.109375 19.34375 12.03125 C 19.199219 11.953125 19.027344 11.910156 18.847656 11.910156 L 17.539062 11.910156 C 17.296875 11.910156 17.074219 11.988281 16.902344 12.121094 C 16.820312 12.191406 16.75 12.273438 16.699219 12.367188 C 16.648438 12.464844 16.617188 12.570312 16.617188 12.683594 L 16.617188 12.71875 C 16.617188 12.832031 16.648438 12.9375 16.699219 13.035156 C 16.773438 13.175781 16.894531 13.292969 17.039062 13.371094 C 17.1875 13.449219 17.355469 13.492188 17.539062 13.492188 L 18.847656 13.492188 C 19.089844 13.492188 19.3125 13.414062 19.480469 13.28125 C 19.566406 13.210938 19.636719 13.128906 19.6875 13.035156 C 19.738281 12.9375 19.765625 12.832031 19.765625 12.71875 L 19.566406 12.71875 " fill-opacity="1" fill-rule="nonzero"/><path fill="rgb(100%, 100%, 100%)" d="M 19.273438 12.542969 C 19.273438 12.828125 18.984375 13.0625 18.628906 13.0625 L 17.460938 13.0625 C 17.105469 13.0625 16.816406 12.828125 16.816406 12.542969 L 16.816406 12.625 C 16.816406 12.339844 17.105469 12.105469 17.460938 12.105469 L 18.628906 12.105469 C 18.984375 12.105469 19.273438 12.339844 19.273438 12.625 L 19.273438 12.542969 " fill-opacity="1" fill-rule="nonzero"/><path fill="rgb(13.729858%, 12.159729%, 12.548828%)" d="M 19.273438 12.542969 L 19.074219 12.542969 C 19.074219 12.582031 19.066406 12.617188 19.046875 12.652344 C 19.019531 12.707031 18.96875 12.757812 18.894531 12.796875 C 18.824219 12.839844 18.730469 12.863281 18.628906 12.863281 L 17.460938 12.863281 C 17.328125 12.863281 17.210938 12.820312 17.132812 12.753906 C 17.09375 12.722656 17.0625 12.6875 17.042969 12.652344 C 17.027344 12.617188 17.015625 12.582031 17.015625 12.542969 C 17.015625 12.492188 16.996094 12.441406 16.957031 12.402344 C 16.921875 12.367188 16.871094 12.347656 16.816406 12.347656 C 16.765625 12.347656 16.714844 12.367188 16.675781 12.402344 C 16.640625 12.441406 16.617188 12.492188 16.617188 12.542969 L 16.617188 12.625 C 16.617188 12.675781 16.640625 12.726562 16.675781 12.765625 C 16.714844 12.800781 16.765625 12.820312 16.816406 12.820312 C 16.871094 12.820312 16.921875 12.800781 16.957031 12.765625 C 16.996094 12.726562 17.015625 12.675781 17.015625 12.625 C 17.015625 12.585938 17.027344 12.550781 17.042969 12.515625 C 17.074219 12.460938 17.125 12.40625 17.195312 12.367188 C 17.269531 12.328125 17.359375 12.304688 17.460938 12.304688 L 18.628906 12.304688 C 18.765625 12.304688 18.882812 12.347656 18.960938 12.410156 C 19 12.441406 19.027344 12.480469 19.046875 12.515625 C 19.066406 12.550781 19.074219 12.585938 19.074219 12.625 C 19.074219 12.675781 19.097656 12.726562 19.132812 12.765625 C 19.171875 12.800781 19.222656 12.820312 19.273438 12.820312 C 19.328125 12.820312 19.378906 12.800781 19.414062 12.765625 C 19.453125 12.726562 19.472656 12.675781 19.472656 12.625 L 19.472656 12.542969 C 19.472656 12.492188 19.453125 12.441406 19.414062 12.402344 C 19.378906 12.367188 19.328125 12.347656 19.273438 12.347656 C 19.222656 12.347656 19.171875 12.367188 19.132812 12.402344 C 19.097656 12.441406 19.074219 12.492188 19.074219 12.542969 L 19.273438 12.542969 L 19.074219 12.542969 L 19.074219 12.625 C 19.074219 12.675781 19.097656 12.726562 19.132812 12.765625 C 19.171875 12.800781 19.222656 12.820312 19.273438 12.820312 C 19.328125 12.820312 19.378906 12.800781 19.414062 12.765625 C 19.453125 12.726562 19.472656 12.675781 19.472656 12.625 C 19.472656 12.519531 19.445312 12.417969 19.398438 12.332031 C 19.328125 12.199219 19.21875 12.09375 19.085938 12.019531 C 18.953125 11.949219 18.796875 11.910156 18.628906 11.910156 L 17.460938 11.910156 C 17.242188 11.910156 17.035156 11.980469 16.882812 12.105469 C 16.804688 12.167969 16.738281 12.242188 16.691406 12.332031 C 16.644531 12.417969 16.617188 12.519531 16.617188 12.625 C 16.617188 12.675781 16.640625 12.726562 16.675781 12.765625 C 16.714844 12.800781 16.765625 12.820312 16.816406 12.820312 C 16.871094 12.820312 16.921875 12.800781 16.957031 12.765625 C 16.996094 12.726562 17.015625 12.675781 17.015625 12.625 L 17.015625 12.542969 C 17.015625 12.492188 16.996094 12.441406 16.957031 12.402344 C 16.921875 12.367188 16.871094 12.347656 16.816406 12.347656 C 16.765625 12.347656 16.714844 12.367188 16.675781 12.402344 C 16.640625 12.441406 16.617188 12.492188 16.617188 12.542969 C 16.617188 12.648438 16.644531 12.75 16.691406 12.835938 C 16.761719 12.96875 16.875 13.074219 17.007812 13.144531 C 17.140625 13.21875 17.296875 13.257812 17.460938 13.257812 L 18.628906 13.257812 C 18.851562 13.257812 19.054688 13.1875 19.210938 13.0625 C 19.289062 13 19.351562 12.925781 19.398438 12.835938 C 19.445312 12.75 19.472656 12.648438 19.472656 12.542969 C 19.472656 12.492188 19.453125 12.441406 19.414062 12.402344 C 19.378906 12.367188 19.328125 12.347656 19.273438 12.347656 C 19.222656 12.347656 19.171875 12.367188 19.132812 12.402344 C 19.097656 12.441406 19.074219 12.492188 19.074219 12.542969 L 19.273438 12.542969 " fill-opacity="1" fill-rule="nonzero"/><g clip-path="url(#id2)"><path fill="rgb(100%, 100%, 100%)" d="M 32.757812 21.375 C 32.757812 16.015625 28.386719 11.671875 23 11.671875 C 17.609375 11.671875 13.242188 16.015625 13.242188 21.375 C 13.242188 23.871094 14.191406 26.148438 15.75 27.867188 L 18.109375 31.769531 L 22.417969 31.769531 L 22.628906 31.070312 C 22.75 31.078125 22.875 31.078125 23 31.078125 C 23.125 31.078125 23.246094 31.078125 23.371094 31.070312 L 23.582031 31.769531 L 27.890625 31.769531 L 30.25 27.867188 C 31.808594 26.148438 32.757812 23.871094 32.757812 21.375 " fill-opacity="1" fill-rule="nonzero"/><path fill="rgb(13.729858%, 12.159729%, 12.548828%)" d="M 32.757812 21.375 L 32.957031 21.375 C 32.957031 15.90625 28.496094 11.472656 23 11.472656 C 17.5 11.472656 13.042969 15.90625 13.042969 21.375 C 13.042969 23.921875 14.011719 26.246094 15.601562 28 L 15.75 27.867188 L 15.578125 27.972656 L 17.9375 31.871094 C 17.972656 31.929688 18.039062 31.964844 18.109375 31.964844 L 22.417969 31.964844 C 22.503906 31.964844 22.582031 31.910156 22.609375 31.824219 L 22.820312 31.128906 L 22.628906 31.070312 L 22.621094 31.269531 C 22.746094 31.273438 22.871094 31.277344 23 31.277344 C 23.128906 31.277344 23.253906 31.273438 23.378906 31.269531 L 23.371094 31.070312 L 23.179688 31.128906 L 23.390625 31.824219 C 23.417969 31.910156 23.492188 31.964844 23.582031 31.964844 L 27.890625 31.964844 C 27.960938 31.964844 28.027344 31.929688 28.0625 31.871094 L 30.421875 27.96875 L 30.25 27.867188 L 30.398438 28 C 31.988281 26.246094 32.957031 23.921875 32.957031 21.375 L 32.558594 21.375 C 32.558594 23.820312 31.628906 26.050781 30.101562 27.734375 C 30.09375 27.746094 30.085938 27.757812 30.078125 27.765625 L 27.777344 31.570312 L 23.730469 31.570312 L 23.5625 31.015625 C 23.535156 30.929688 23.453125 30.871094 23.363281 30.875 C 23.242188 30.878906 23.121094 30.882812 23 30.882812 C 22.878906 30.882812 22.757812 30.878906 22.636719 30.875 C 22.546875 30.871094 22.464844 30.929688 22.4375 31.015625 L 22.269531 31.570312 L 18.21875 31.570312 L 15.921875 27.765625 C 15.914062 27.757812 15.90625 27.746094 15.898438 27.738281 C 14.371094 26.050781 13.441406 23.820312 13.441406 21.375 C 13.441406 18.75 14.511719 16.375 16.242188 14.652344 C 17.972656 12.929688 20.359375 11.867188 23 11.867188 C 25.640625 11.867188 28.027344 12.929688 29.757812 14.652344 C 31.488281 16.375 32.558594 18.75 32.558594 21.375 L 32.757812 21.375 " fill-opacity="1" fill-rule="nonzero"/></g><path fill="rgb(100%, 100%, 100%)" d="M 26.914062 23.683594 C 26.914062 25.28125 25.085938 26.574219 22.832031 26.574219 C 20.578125 26.574219 18.753906 25.28125 18.753906 23.683594 C 18.753906 22.085938 20.578125 20.792969 22.832031 20.792969 C 25.085938 20.792969 26.914062 22.085938 26.914062 23.683594 " fill-opacity="1" fill-rule="nonzero"/><path fill="rgb(13.729858%, 12.159729%, 12.548828%)" d="M 26.914062 23.683594 L 26.714844 23.683594 C 26.714844 24.042969 26.613281 24.386719 26.421875 24.707031 C 26.136719 25.183594 25.652344 25.605469 25.027344 25.902344 C 24.40625 26.199219 23.648438 26.375 22.832031 26.375 C 21.746094 26.375 20.761719 26.0625 20.0625 25.566406 C 19.714844 25.316406 19.433594 25.027344 19.246094 24.707031 C 19.054688 24.386719 18.953125 24.042969 18.953125 23.683594 C 18.953125 23.324219 19.054688 22.976562 19.246094 22.660156 C 19.53125 22.183594 20.015625 21.761719 20.636719 21.464844 C 21.261719 21.167969 22.015625 20.992188 22.832031 20.992188 C 23.921875 20.992188 24.902344 21.304688 25.601562 21.800781 C 25.953125 22.046875 26.230469 22.339844 26.421875 22.660156 C 26.613281 22.976562 26.714844 23.324219 26.714844 23.683594 L 27.113281 23.683594 C 27.113281 23.246094 26.988281 22.832031 26.761719 22.457031 C 26.429688 21.898438 25.878906 21.433594 25.199219 21.109375 C 24.519531 20.785156 23.707031 20.597656 22.832031 20.597656 C 21.667969 20.597656 20.609375 20.929688 19.832031 21.480469 C 19.445312 21.753906 19.125 22.085938 18.902344 22.457031 C 18.679688 22.832031 18.554688 23.246094 18.554688 23.683594 C 18.554688 24.121094 18.679688 24.535156 18.902344 24.910156 C 19.238281 25.46875 19.785156 25.933594 20.464844 26.257812 C 21.144531 26.582031 21.960938 26.769531 22.832031 26.769531 C 24 26.769531 25.054688 26.4375 25.832031 25.886719 C 26.222656 25.613281 26.539062 25.28125 26.761719 24.910156 C 26.988281 24.535156 27.113281 24.121094 27.113281 23.683594 L 26.914062 23.683594 " fill-opacity="1" fill-rule="nonzero"/><g clip-path="url(#id3)"><path fill="rgb(100%, 100%, 100%)" d="M 17.191406 31.769531 C 17.191406 31.371094 17.671875 31.046875 17.671875 31.046875 C 17.671875 31.046875 18.109375 31.15625 18.109375 31.769531 L 17.191406 31.769531 " fill-opacity="1" fill-rule="nonzero"/></g><g clip-path="url(#id4)"><path fill="rgb(13.729858%, 12.159729%, 12.548828%)" d="M 17.191406 31.769531 L 17.390625 31.769531 C 17.390625 31.710938 17.40625 31.644531 17.441406 31.578125 C 17.492188 31.480469 17.578125 31.382812 17.652344 31.3125 C 17.691406 31.28125 17.726562 31.253906 17.75 31.234375 C 17.761719 31.226562 17.769531 31.21875 17.773438 31.214844 L 17.78125 31.210938 L 17.75 31.160156 L 17.78125 31.210938 L 17.75 31.160156 L 17.78125 31.210938 L 17.671875 31.046875 L 17.621094 31.238281 L 17.640625 31.160156 L 17.617188 31.238281 L 17.621094 31.238281 L 17.640625 31.160156 L 17.617188 31.238281 C 17.621094 31.238281 17.695312 31.261719 17.765625 31.335938 C 17.800781 31.371094 17.835938 31.417969 17.863281 31.488281 C 17.890625 31.558594 17.910156 31.648438 17.910156 31.769531 L 18.109375 31.769531 L 18.109375 31.570312 L 17.191406 31.570312 L 17.191406 31.769531 L 17.390625 31.769531 L 17.191406 31.769531 L 17.191406 31.964844 L 18.109375 31.964844 C 18.160156 31.964844 18.210938 31.945312 18.25 31.910156 C 18.285156 31.871094 18.304688 31.820312 18.304688 31.769531 C 18.308594 31.59375 18.273438 31.441406 18.222656 31.320312 C 18.144531 31.136719 18.023438 31.015625 17.921875 30.949219 C 17.816406 30.878906 17.734375 30.859375 17.71875 30.855469 C 17.664062 30.839844 17.605469 30.851562 17.558594 30.882812 C 17.550781 30.886719 17.421875 30.976562 17.285156 31.125 C 17.214844 31.199219 17.144531 31.289062 17.089844 31.398438 C 17.035156 31.503906 16.992188 31.628906 16.992188 31.769531 C 16.992188 31.820312 17.011719 31.871094 17.050781 31.910156 C 17.085938 31.945312 17.136719 31.964844 17.191406 31.964844 L 17.191406 31.769531 " fill-opacity="1" fill-rule="nonzero"/></g><g clip-path="url(#id5)"><path fill="rgb(100%, 100%, 100%)" d="M 17.789062 31.769531 C 17.789062 31.371094 18.253906 31.046875 18.253906 31.046875 C 18.253906 31.046875 19.035156 31.15625 19.035156 31.769531 L 17.789062 31.769531 " fill-opacity="1" fill-rule="nonzero"/></g><g clip-path="url(#id6)"><path fill="rgb(13.729858%, 12.159729%, 12.548828%)" d="M 17.789062 31.769531 L 17.988281 31.769531 C 17.988281 31.707031 18.003906 31.644531 18.039062 31.578125 C 18.089844 31.476562 18.171875 31.378906 18.242188 31.3125 C 18.28125 31.277344 18.3125 31.25 18.335938 31.234375 C 18.347656 31.222656 18.355469 31.21875 18.359375 31.214844 L 18.367188 31.207031 L 18.332031 31.15625 L 18.367188 31.207031 L 18.332031 31.15625 L 18.367188 31.207031 L 18.253906 31.046875 L 18.226562 31.242188 L 18.242188 31.140625 L 18.226562 31.242188 L 18.242188 31.140625 L 18.226562 31.242188 C 18.226562 31.242188 18.238281 31.242188 18.253906 31.246094 C 18.320312 31.261719 18.484375 31.304688 18.617188 31.390625 C 18.679688 31.433594 18.734375 31.484375 18.773438 31.542969 C 18.8125 31.605469 18.835938 31.671875 18.835938 31.769531 L 19.035156 31.769531 L 19.035156 31.570312 L 17.789062 31.570312 L 17.789062 31.769531 L 17.988281 31.769531 L 17.789062 31.769531 L 17.789062 31.964844 L 19.035156 31.964844 C 19.089844 31.964844 19.136719 31.945312 19.175781 31.910156 C 19.214844 31.871094 19.234375 31.820312 19.234375 31.769531 C 19.234375 31.574219 19.167969 31.402344 19.070312 31.277344 C 19 31.183594 18.914062 31.109375 18.824219 31.054688 C 18.695312 30.96875 18.5625 30.921875 18.460938 30.890625 C 18.359375 30.859375 18.289062 30.851562 18.28125 30.851562 C 18.234375 30.84375 18.179688 30.855469 18.140625 30.882812 C 18.132812 30.890625 18.003906 30.976562 17.871094 31.125 C 17.804688 31.203125 17.738281 31.292969 17.683594 31.398438 C 17.628906 31.503906 17.589844 31.628906 17.589844 31.769531 C 17.589844 31.820312 17.609375 31.871094 17.648438 31.910156 C 17.683594 31.945312 17.734375 31.964844 17.789062 31.964844 L 17.789062 31.769531 " fill-opacity="1" fill-rule="nonzero"/></g><g clip-path="url(#id7)"><path fill="rgb(100%, 100%, 100%)" d="M 18.714844 31.769531 C 18.714844 31.371094 19.179688 31.046875 19.179688 31.046875 C 19.179688 31.046875 19.960938 31.15625 19.960938 31.769531 L 18.714844 31.769531 " fill-opacity="1" fill-rule="nonzero"/></g><g clip-path="url(#id8)"><path fill="rgb(13.729858%, 12.159729%, 12.548828%)" d="M 18.714844 31.769531 L 18.914062 31.769531 C 18.914062 31.707031 18.933594 31.644531 18.964844 31.578125 C 19.015625 31.476562 19.101562 31.378906 19.171875 31.3125 C 19.207031 31.277344 19.238281 31.25 19.261719 31.234375 C 19.273438 31.222656 19.28125 31.21875 19.289062 31.214844 L 19.292969 31.207031 L 19.296875 31.207031 L 19.257812 31.15625 L 19.296875 31.207031 L 19.257812 31.15625 L 19.296875 31.207031 L 19.179688 31.046875 L 19.152344 31.242188 L 19.167969 31.140625 L 19.152344 31.242188 L 19.167969 31.140625 L 19.152344 31.242188 C 19.152344 31.242188 19.164062 31.242188 19.183594 31.246094 C 19.25 31.261719 19.414062 31.304688 19.542969 31.390625 C 19.609375 31.433594 19.664062 31.484375 19.703125 31.542969 C 19.738281 31.605469 19.761719 31.671875 19.761719 31.769531 L 19.960938 31.769531 L 19.960938 31.570312 L 18.714844 31.570312 L 18.714844 31.769531 L 18.914062 31.769531 L 18.714844 31.769531 L 18.714844 31.964844 L 19.960938 31.964844 C 20.015625 31.964844 20.066406 31.945312 20.101562 31.910156 C 20.140625 31.871094 20.160156 31.820312 20.160156 31.769531 C 20.164062 31.574219 20.097656 31.402344 20 31.277344 C 19.925781 31.183594 19.839844 31.109375 19.753906 31.054688 C 19.621094 30.96875 19.488281 30.921875 19.386719 30.890625 C 19.285156 30.859375 19.214844 30.851562 19.210938 30.851562 C 19.160156 30.84375 19.109375 30.855469 19.066406 30.882812 C 19.058594 30.890625 18.933594 30.976562 18.800781 31.125 C 18.734375 31.203125 18.664062 31.292969 18.609375 31.398438 C 18.558594 31.503906 18.515625 31.628906 18.515625 31.769531 C 18.515625 31.820312 18.539062 31.871094 18.574219 31.910156 C 18.613281 31.945312 18.664062 31.964844 18.714844 31.964844 L 18.714844 31.769531 " fill-opacity="1" fill-rule="nonzero"/></g><g clip-path="url(#id9)"><path fill="rgb(100%, 100%, 100%)" d="M 28.808594 31.769531 C 28.808594 31.371094 28.328125 31.046875 28.328125 31.046875 C 28.328125 31.046875 27.890625 31.15625 27.890625 31.769531 L 28.808594 31.769531 " fill-opacity="1" fill-rule="nonzero"/></g><g clip-path="url(#id10)"><path fill="rgb(13.729858%, 12.159729%, 12.548828%)" d="M 28.808594 31.769531 L 29.007812 31.769531 C 29.007812 31.628906 28.964844 31.503906 28.910156 31.398438 C 28.824219 31.234375 28.710938 31.113281 28.617188 31.023438 C 28.519531 30.9375 28.445312 30.886719 28.441406 30.882812 C 28.394531 30.851562 28.335938 30.839844 28.28125 30.855469 C 28.257812 30.859375 28.117188 30.898438 27.972656 31.035156 C 27.898438 31.101562 27.828125 31.199219 27.777344 31.320312 C 27.722656 31.441406 27.691406 31.59375 27.691406 31.769531 C 27.691406 31.820312 27.714844 31.871094 27.75 31.910156 C 27.789062 31.945312 27.839844 31.964844 27.890625 31.964844 L 28.808594 31.964844 C 28.863281 31.964844 28.910156 31.945312 28.949219 31.910156 C 28.988281 31.871094 29.007812 31.820312 29.007812 31.769531 L 28.808594 31.769531 L 28.808594 31.570312 L 27.890625 31.570312 L 27.890625 31.769531 L 28.089844 31.769531 C 28.089844 31.640625 28.113281 31.542969 28.144531 31.472656 C 28.1875 31.367188 28.25 31.3125 28.300781 31.277344 C 28.328125 31.257812 28.351562 31.25 28.363281 31.242188 C 28.371094 31.238281 28.375 31.238281 28.378906 31.238281 L 28.351562 31.132812 L 28.378906 31.238281 L 28.351562 31.132812 L 28.378906 31.238281 L 28.328125 31.046875 L 28.21875 31.210938 L 28.226562 31.199219 L 28.214844 31.210938 L 28.21875 31.210938 L 28.226562 31.199219 L 28.214844 31.210938 C 28.222656 31.214844 28.332031 31.289062 28.429688 31.402344 C 28.480469 31.457031 28.527344 31.519531 28.558594 31.585938 C 28.59375 31.648438 28.609375 31.710938 28.609375 31.769531 L 28.808594 31.769531 L 28.808594 31.570312 L 28.808594 31.769531 " fill-opacity="1" fill-rule="nonzero"/></g><g clip-path="url(#id11)"><path fill="rgb(100%, 100%, 100%)" d="M 28.210938 31.769531 C 28.210938 31.371094 27.746094 31.046875 27.746094 31.046875 C 27.746094 31.046875 26.964844 31.15625 26.964844 31.769531 L 28.210938 31.769531 " fill-opacity="1" fill-rule="nonzero"/></g><g clip-path="url(#id12)"><path fill="rgb(13.729858%, 12.159729%, 12.548828%)" d="M 28.210938 31.769531 L 28.410156 31.769531 C 28.410156 31.628906 28.371094 31.503906 28.316406 31.398438 C 28.234375 31.238281 28.121094 31.113281 28.03125 31.027344 C 27.9375 30.9375 27.863281 30.886719 27.859375 30.882812 C 27.816406 30.855469 27.765625 30.84375 27.71875 30.851562 C 27.703125 30.851562 27.492188 30.882812 27.261719 31.003906 C 27.144531 31.066406 27.023438 31.152344 26.925781 31.277344 C 26.832031 31.402344 26.765625 31.574219 26.765625 31.769531 C 26.765625 31.820312 26.785156 31.871094 26.824219 31.910156 C 26.859375 31.945312 26.910156 31.964844 26.964844 31.964844 L 28.210938 31.964844 C 28.265625 31.964844 28.3125 31.945312 28.351562 31.910156 C 28.390625 31.871094 28.410156 31.820312 28.410156 31.769531 L 28.210938 31.769531 L 28.210938 31.570312 L 26.964844 31.570312 L 26.964844 31.769531 L 27.164062 31.769531 C 27.164062 31.65625 27.195312 31.582031 27.246094 31.515625 C 27.28125 31.464844 27.332031 31.421875 27.390625 31.386719 C 27.476562 31.332031 27.574219 31.292969 27.652344 31.269531 C 27.6875 31.257812 27.722656 31.25 27.742188 31.246094 C 27.753906 31.246094 27.761719 31.242188 27.765625 31.242188 L 27.773438 31.242188 L 27.746094 31.046875 L 27.632812 31.207031 L 27.695312 31.117188 L 27.628906 31.207031 L 27.632812 31.207031 L 27.695312 31.117188 L 27.628906 31.207031 C 27.628906 31.207031 27.636719 31.210938 27.648438 31.222656 C 27.6875 31.25 27.789062 31.332031 27.871094 31.4375 C 27.910156 31.488281 27.949219 31.546875 27.972656 31.605469 C 28 31.660156 28.011719 31.714844 28.011719 31.769531 L 28.210938 31.769531 L 28.210938 31.570312 L 28.210938 31.769531 " fill-opacity="1" fill-rule="nonzero"/></g><g clip-path="url(#id13)"><path fill="rgb(100%, 100%, 100%)" d="M 27.285156 31.769531 C 27.285156 31.371094 26.816406 31.046875 26.816406 31.046875 C 26.816406 31.046875 26.035156 31.15625 26.035156 31.769531 L 27.285156 31.769531 " fill-opacity="1" fill-rule="nonzero"/></g><g clip-path="url(#id14)"><path fill="rgb(13.729858%, 12.159729%, 12.548828%)" d="M 27.285156 31.769531 L 27.484375 31.769531 C 27.484375 31.628906 27.441406 31.503906 27.390625 31.398438 C 27.308594 31.238281 27.195312 31.113281 27.101562 31.027344 C 27.011719 30.9375 26.9375 30.886719 26.933594 30.882812 C 26.890625 30.855469 26.839844 30.84375 26.789062 30.851562 C 26.777344 30.851562 26.5625 30.882812 26.332031 31.003906 C 26.21875 31.066406 26.097656 31.152344 26 31.277344 C 25.902344 31.402344 25.835938 31.574219 25.839844 31.769531 C 25.839844 31.820312 25.859375 31.871094 25.894531 31.910156 C 25.933594 31.945312 25.984375 31.964844 26.035156 31.964844 L 27.285156 31.964844 C 27.335938 31.964844 27.386719 31.945312 27.425781 31.910156 C 27.460938 31.871094 27.484375 31.820312 27.484375 31.769531 L 27.285156 31.769531 L 27.285156 31.570312 L 26.035156 31.570312 L 26.035156 31.769531 L 26.234375 31.769531 C 26.238281 31.65625 26.269531 31.582031 26.316406 31.515625 C 26.355469 31.464844 26.40625 31.421875 26.460938 31.386719 C 26.546875 31.332031 26.648438 31.292969 26.722656 31.269531 C 26.761719 31.257812 26.792969 31.25 26.816406 31.246094 C 26.828125 31.246094 26.835938 31.242188 26.839844 31.242188 L 26.84375 31.242188 L 26.816406 31.046875 L 26.703125 31.207031 L 26.765625 31.121094 L 26.703125 31.207031 L 26.765625 31.121094 L 26.703125 31.207031 C 26.703125 31.207031 26.710938 31.210938 26.722656 31.222656 C 26.761719 31.25 26.859375 31.332031 26.941406 31.4375 C 26.984375 31.488281 27.019531 31.546875 27.046875 31.605469 C 27.070312 31.660156 27.085938 31.714844 27.085938 31.769531 L 27.285156 31.769531 L 27.285156 31.570312 L 27.285156 31.769531 " fill-opacity="1" fill-rule="nonzero"/></g><path fill="rgb(100%, 100%, 100%)" d="M 24.492188 23.683594 C 24.492188 24.398438 24.316406 24.976562 24.097656 24.976562 C 23.882812 24.976562 23.707031 24.398438 23.707031 23.683594 C 23.707031 22.96875 23.882812 22.390625 24.097656 22.390625 C 24.316406 22.390625 24.492188 22.96875 24.492188 23.683594 " fill-opacity="1" fill-rule="nonzero"/><path fill="rgb(13.729858%, 12.159729%, 12.548828%)" d="M 24.492188 23.683594 L 24.292969 23.683594 C 24.292969 24.023438 24.25 24.332031 24.1875 24.539062 C 24.15625 24.644531 24.117188 24.71875 24.089844 24.757812 C 24.082031 24.769531 24.078125 24.773438 24.074219 24.777344 L 24.066406 24.785156 L 24.097656 24.832031 L 24.097656 24.777344 C 24.082031 24.777344 24.066406 24.785156 24.066406 24.785156 L 24.097656 24.832031 L 24.097656 24.777344 L 24.097656 24.847656 L 24.121094 24.78125 C 24.117188 24.777344 24.109375 24.777344 24.097656 24.777344 L 24.097656 24.847656 L 24.121094 24.78125 L 24.109375 24.816406 L 24.132812 24.785156 L 24.121094 24.78125 L 24.109375 24.816406 L 24.132812 24.785156 L 24.128906 24.785156 C 24.125 24.78125 24.09375 24.746094 24.066406 24.683594 C 24.023438 24.59375 23.980469 24.449219 23.949219 24.277344 C 23.921875 24.105469 23.90625 23.902344 23.90625 23.683594 C 23.902344 23.34375 23.949219 23.035156 24.011719 22.828125 C 24.042969 22.722656 24.078125 22.648438 24.109375 22.609375 C 24.113281 22.601562 24.121094 22.59375 24.125 22.589844 L 24.128906 22.582031 L 24.132812 22.582031 L 24.097656 22.535156 L 24.097656 22.589844 C 24.117188 22.589844 24.132812 22.582031 24.132812 22.582031 L 24.097656 22.535156 L 24.097656 22.589844 L 24.097656 22.519531 L 24.074219 22.585938 C 24.082031 22.589844 24.089844 22.589844 24.097656 22.589844 L 24.097656 22.519531 L 24.074219 22.585938 L 24.089844 22.550781 L 24.066406 22.582031 L 24.074219 22.585938 L 24.089844 22.550781 L 24.066406 22.582031 C 24.074219 22.585938 24.105469 22.621094 24.132812 22.683594 C 24.175781 22.773438 24.21875 22.914062 24.246094 23.089844 C 24.277344 23.261719 24.292969 23.464844 24.292969 23.683594 L 24.691406 23.683594 C 24.691406 23.308594 24.648438 22.972656 24.566406 22.714844 C 24.527344 22.582031 24.480469 22.472656 24.414062 22.378906 C 24.378906 22.332031 24.339844 22.289062 24.289062 22.253906 C 24.238281 22.21875 24.171875 22.195312 24.097656 22.195312 C 24.027344 22.195312 23.960938 22.21875 23.910156 22.253906 C 23.863281 22.285156 23.828125 22.320312 23.796875 22.359375 C 23.742188 22.429688 23.703125 22.511719 23.667969 22.601562 C 23.617188 22.738281 23.578125 22.902344 23.550781 23.082031 C 23.523438 23.265625 23.507812 23.46875 23.507812 23.683594 C 23.507812 24.054688 23.550781 24.394531 23.628906 24.652344 C 23.671875 24.785156 23.71875 24.894531 23.785156 24.988281 C 23.816406 25.035156 23.855469 25.078125 23.910156 25.113281 C 23.960938 25.148438 24.027344 25.171875 24.097656 25.171875 C 24.171875 25.171875 24.238281 25.148438 24.289062 25.113281 C 24.335938 25.082031 24.371094 25.046875 24.402344 25.007812 C 24.453125 24.9375 24.496094 24.855469 24.53125 24.765625 C 24.582031 24.628906 24.621094 24.464844 24.648438 24.28125 C 24.675781 24.101562 24.691406 23.898438 24.691406 23.683594 L 24.492188 23.683594 " fill-opacity="1" fill-rule="nonzero"/><path fill="rgb(100%, 100%, 100%)" d="M 22.101562 23.683594 C 22.101562 24.398438 21.925781 24.976562 21.707031 24.976562 C 21.492188 24.976562 21.316406 24.398438 21.316406 23.683594 C 21.316406 22.96875 21.492188 22.390625 21.707031 22.390625 C 21.925781 22.390625 22.101562 22.96875 22.101562 23.683594 " fill-opacity="1" fill-rule="nonzero"/><path fill="rgb(13.729858%, 12.159729%, 12.548828%)" d="M 22.101562 23.683594 L 21.902344 23.683594 C 21.902344 24.023438 21.859375 24.332031 21.796875 24.539062 C 21.765625 24.644531 21.726562 24.71875 21.699219 24.757812 C 21.695312 24.769531 21.6875 24.773438 21.683594 24.777344 L 21.675781 24.785156 L 21.707031 24.832031 L 21.707031 24.777344 C 21.691406 24.777344 21.675781 24.785156 21.675781 24.785156 L 21.707031 24.832031 L 21.707031 24.777344 L 21.707031 24.847656 L 21.730469 24.78125 C 21.726562 24.777344 21.71875 24.777344 21.707031 24.777344 L 21.707031 24.847656 L 21.730469 24.78125 L 21.71875 24.816406 L 21.742188 24.785156 L 21.730469 24.78125 L 21.71875 24.816406 L 21.742188 24.785156 L 21.738281 24.785156 C 21.734375 24.78125 21.703125 24.746094 21.675781 24.683594 C 21.632812 24.59375 21.589844 24.449219 21.5625 24.277344 C 21.53125 24.105469 21.515625 23.902344 21.515625 23.683594 C 21.515625 23.34375 21.558594 23.035156 21.621094 22.828125 C 21.652344 22.722656 21.6875 22.648438 21.71875 22.609375 C 21.722656 22.601562 21.730469 22.59375 21.734375 22.589844 L 21.742188 22.582031 L 21.707031 22.535156 L 21.707031 22.589844 C 21.726562 22.589844 21.742188 22.582031 21.742188 22.582031 L 21.707031 22.535156 L 21.707031 22.589844 L 21.707031 22.519531 L 21.6875 22.585938 C 21.691406 22.589844 21.699219 22.589844 21.707031 22.589844 L 21.707031 22.519531 L 21.6875 22.585938 L 21.699219 22.550781 L 21.675781 22.582031 L 21.6875 22.585938 L 21.699219 22.550781 L 21.675781 22.582031 C 21.683594 22.585938 21.714844 22.621094 21.742188 22.683594 C 21.785156 22.773438 21.828125 22.914062 21.855469 23.089844 C 21.886719 23.261719 21.902344 23.464844 21.902344 23.683594 L 22.300781 23.683594 C 22.300781 23.308594 22.257812 22.972656 22.175781 22.714844 C 22.136719 22.582031 22.089844 22.472656 22.023438 22.378906 C 21.988281 22.332031 21.949219 22.289062 21.898438 22.253906 C 21.847656 22.21875 21.78125 22.195312 21.707031 22.195312 C 21.636719 22.195312 21.570312 22.21875 21.519531 22.253906 C 21.472656 22.285156 21.4375 22.320312 21.40625 22.359375 C 21.351562 22.429688 21.3125 22.511719 21.277344 22.601562 C 21.226562 22.738281 21.1875 22.902344 21.160156 23.082031 C 21.132812 23.265625 21.117188 23.46875 21.117188 23.683594 C 21.117188 24.054688 21.160156 24.394531 21.238281 24.652344 C 21.28125 24.785156 21.328125 24.894531 21.394531 24.988281 C 21.425781 25.035156 21.464844 25.078125 21.519531 25.113281 C 21.570312 25.148438 21.636719 25.171875 21.707031 25.171875 C 21.78125 25.171875 21.847656 25.148438 21.898438 25.113281 C 21.945312 25.082031 21.980469 25.046875 22.011719 25.007812 C 22.0625 24.9375 22.105469 24.855469 22.140625 24.765625 C 22.191406 24.628906 22.230469 24.464844 22.257812 24.28125 C 22.285156 24.101562 22.300781 23.898438 22.300781 23.683594 L 22.101562 23.683594 " fill-opacity="1" fill-rule="nonzero"/><path fill="rgb(13.729858%, 12.159729%, 12.548828%)" d="M 26.457031 19.265625 C 26.457031 19.742188 26.074219 20.125 25.597656 20.125 C 25.121094 20.125 24.734375 19.742188 24.734375 19.265625 C 24.734375 18.792969 25.121094 18.410156 25.597656 18.410156 C 26.074219 18.410156 26.457031 18.792969 26.457031 19.265625 " fill-opacity="1" fill-rule="nonzero"/><path fill="rgb(13.729858%, 12.159729%, 12.548828%)" d="M 21.429688 19.265625 C 21.429688 19.742188 21.046875 20.125 20.570312 20.125 C 20.09375 20.125 19.707031 19.742188 19.707031 19.265625 C 19.707031 18.792969 20.09375 18.410156 20.570312 18.410156 C 21.046875 18.410156 21.429688 18.792969 21.429688 19.265625 " fill-opacity="1" fill-rule="nonzero"/><path fill="rgb(100%, 100%, 100%)" d="M 26.699219 14.761719 C 26.972656 13.71875 28.476562 12.019531 28.972656 11.96875 C 29.894531 11.875 32.078125 14.789062 30.6875 16.585938 " fill-opacity="1" fill-rule="nonzero"/><path fill="rgb(13.729858%, 12.159729%, 12.548828%)" d="M 26.890625 14.8125 C 26.953125 14.582031 27.089844 14.289062 27.269531 13.996094 C 27.542969 13.550781 27.910156 13.085938 28.25 12.738281 C 28.421875 12.5625 28.582031 12.417969 28.71875 12.316406 C 28.789062 12.265625 28.851562 12.226562 28.898438 12.203125 C 28.949219 12.175781 28.984375 12.167969 28.992188 12.167969 C 29 12.167969 29.007812 12.164062 29.015625 12.164062 C 29.070312 12.164062 29.144531 12.183594 29.234375 12.222656 C 29.390625 12.292969 29.582031 12.433594 29.777344 12.628906 C 30.070312 12.917969 30.363281 13.328125 30.582031 13.78125 C 30.800781 14.234375 30.941406 14.738281 30.941406 15.214844 C 30.9375 15.664062 30.820312 16.085938 30.53125 16.464844 C 30.460938 16.550781 30.480469 16.675781 30.566406 16.742188 C 30.652344 16.808594 30.777344 16.792969 30.84375 16.703125 C 31.195312 16.253906 31.335938 15.730469 31.335938 15.214844 C 31.335938 14.792969 31.242188 14.371094 31.09375 13.972656 C 30.871094 13.378906 30.523438 12.84375 30.152344 12.445312 C 29.96875 12.246094 29.777344 12.082031 29.585938 11.964844 C 29.492188 11.90625 29.398438 11.859375 29.304688 11.824219 C 29.210938 11.789062 29.113281 11.769531 29.015625 11.769531 C 28.996094 11.769531 28.972656 11.769531 28.953125 11.773438 C 28.894531 11.777344 28.84375 11.792969 28.792969 11.816406 C 28.699219 11.855469 28.605469 11.910156 28.503906 11.984375 C 28.328125 12.109375 28.136719 12.285156 27.9375 12.492188 C 27.636719 12.800781 27.328125 13.183594 27.070312 13.570312 C 26.941406 13.765625 26.824219 13.960938 26.726562 14.152344 C 26.628906 14.34375 26.554688 14.53125 26.503906 14.710938 C 26.476562 14.816406 26.542969 14.925781 26.648438 14.953125 C 26.753906 14.980469 26.863281 14.917969 26.890625 14.8125 " fill-opacity="1" fill-rule="nonzero"/><path fill="rgb(100%, 100%, 100%)" d="M 19.632812 14.761719 C 19.359375 13.71875 17.855469 12.019531 17.359375 11.96875 C 16.4375 11.875 14.253906 14.789062 15.644531 16.585938 " fill-opacity="1" fill-rule="nonzero"/><path fill="rgb(13.729858%, 12.159729%, 12.548828%)" d="M 19.824219 14.710938 C 19.75 14.421875 19.59375 14.105469 19.402344 13.789062 C 19.109375 13.3125 18.730469 12.835938 18.367188 12.460938 C 18.1875 12.277344 18.011719 12.117188 17.847656 12 C 17.765625 11.9375 17.691406 11.886719 17.613281 11.851562 C 17.539062 11.8125 17.464844 11.78125 17.378906 11.773438 C 17.359375 11.769531 17.335938 11.769531 17.316406 11.769531 C 17.183594 11.769531 17.058594 11.804688 16.933594 11.863281 C 16.714844 11.964844 16.492188 12.132812 16.273438 12.347656 C 15.945312 12.675781 15.628906 13.113281 15.390625 13.609375 C 15.15625 14.105469 14.996094 14.660156 14.996094 15.214844 C 14.992188 15.730469 15.136719 16.253906 15.488281 16.703125 C 15.554688 16.792969 15.679688 16.808594 15.765625 16.742188 C 15.851562 16.675781 15.867188 16.550781 15.800781 16.464844 C 15.511719 16.085938 15.394531 15.664062 15.390625 15.214844 C 15.390625 14.851562 15.472656 14.472656 15.609375 14.113281 C 15.8125 13.570312 16.136719 13.070312 16.46875 12.714844 C 16.636719 12.535156 16.804688 12.394531 16.957031 12.300781 C 17.03125 12.253906 17.101562 12.21875 17.160156 12.195312 C 17.222656 12.175781 17.277344 12.164062 17.316406 12.164062 C 17.324219 12.164062 17.332031 12.167969 17.339844 12.167969 C 17.34375 12.167969 17.363281 12.171875 17.386719 12.183594 C 17.4375 12.199219 17.511719 12.242188 17.59375 12.304688 C 17.742188 12.410156 17.921875 12.570312 18.109375 12.765625 C 18.386719 13.058594 18.683594 13.421875 18.929688 13.789062 C 19.050781 13.972656 19.160156 14.15625 19.25 14.332031 C 19.335938 14.503906 19.402344 14.667969 19.441406 14.8125 C 19.46875 14.917969 19.578125 14.980469 19.683594 14.953125 C 19.789062 14.925781 19.855469 14.816406 19.824219 14.710938 " fill-opacity="1" fill-rule="nonzero"/><path fill="rgb(100%, 100%, 100%)" d="M 24.519531 13.25 C 23.875 13.125 21.941406 13.113281 21.144531 13.246094 C 20.746094 13.308594 20.464844 12.792969 20.820312 12.652344 C 21.679688 12.3125 23.796875 12.3125 24.695312 12.476562 C 25.222656 12.574219 25.03125 13.351562 24.519531 13.25 " fill-opacity="1" fill-rule="nonzero"/><path fill="rgb(13.729858%, 12.159729%, 12.548828%)" d="M 24.519531 13.25 L 24.558594 13.058594 C 24.375 13.019531 24.117188 12.996094 23.816406 12.980469 C 23.511719 12.960938 23.167969 12.953125 22.820312 12.953125 C 22.496094 12.953125 22.167969 12.960938 21.875 12.976562 C 21.578125 12.992188 21.316406 13.015625 21.109375 13.050781 C 21.097656 13.050781 21.085938 13.050781 21.074219 13.050781 C 21.042969 13.050781 21.015625 13.046875 20.988281 13.035156 C 20.949219 13.015625 20.910156 12.988281 20.886719 12.953125 C 20.863281 12.921875 20.855469 12.886719 20.855469 12.871094 C 20.855469 12.859375 20.855469 12.859375 20.859375 12.855469 C 20.859375 12.855469 20.863281 12.847656 20.890625 12.835938 C 21.003906 12.792969 21.148438 12.75 21.316406 12.71875 C 21.8125 12.613281 22.5 12.566406 23.148438 12.566406 C 23.445312 12.566406 23.738281 12.578125 23.996094 12.59375 C 24.257812 12.613281 24.488281 12.640625 24.660156 12.671875 C 24.730469 12.6875 24.757812 12.710938 24.777344 12.734375 C 24.796875 12.757812 24.8125 12.792969 24.8125 12.835938 C 24.8125 12.894531 24.789062 12.957031 24.753906 12.996094 C 24.734375 13.015625 24.714844 13.035156 24.691406 13.042969 C 24.667969 13.054688 24.640625 13.0625 24.609375 13.0625 C 24.59375 13.0625 24.578125 13.058594 24.558594 13.058594 L 24.519531 13.25 L 24.484375 13.445312 C 24.527344 13.453125 24.566406 13.457031 24.609375 13.457031 C 24.699219 13.457031 24.789062 13.4375 24.863281 13.402344 C 24.976562 13.347656 25.0625 13.261719 25.121094 13.160156 C 25.179688 13.0625 25.207031 12.953125 25.210938 12.835938 C 25.210938 12.71875 25.171875 12.59375 25.089844 12.488281 C 25.007812 12.382812 24.882812 12.308594 24.730469 12.28125 C 24.535156 12.246094 24.296875 12.21875 24.023438 12.199219 C 23.753906 12.183594 23.457031 12.171875 23.148438 12.171875 C 22.703125 12.171875 22.242188 12.191406 21.824219 12.238281 C 21.613281 12.261719 21.414062 12.292969 21.234375 12.328125 C 21.050781 12.367188 20.886719 12.410156 20.746094 12.46875 C 20.660156 12.5 20.582031 12.558594 20.53125 12.632812 C 20.480469 12.703125 20.457031 12.792969 20.457031 12.871094 C 20.457031 12.949219 20.476562 13.023438 20.507812 13.089844 C 20.554688 13.1875 20.628906 13.273438 20.726562 13.339844 C 20.820312 13.40625 20.941406 13.449219 21.074219 13.449219 C 21.105469 13.449219 21.140625 13.445312 21.175781 13.441406 C 21.355469 13.410156 21.609375 13.386719 21.894531 13.371094 C 22.183594 13.355469 22.503906 13.347656 22.820312 13.347656 C 23.160156 13.347656 23.5 13.355469 23.792969 13.375 C 24.085938 13.390625 24.332031 13.414062 24.484375 13.445312 L 24.519531 13.25 " fill-opacity="1" fill-rule="nonzero"/><g fill="rgb(100%, 100%, 100%)" fill-opacity="1"><g transform="translate(36.631441, 30.509382)"><g><path d="M 7.875 -7.359375 C 7.695312 -7.648438 7.453125 -7.875 7.140625 -8.03125 C 6.835938 -8.1875 6.476562 -8.265625 6.0625 -8.265625 C 5.300781 -8.265625 4.695312 -8.015625 4.25 -7.515625 C 3.8125 -7.015625 3.59375 -6.347656 3.59375 -5.515625 C 3.59375 -4.566406 3.828125 -3.84375 4.296875 -3.34375 C 4.773438 -2.851562 5.460938 -2.609375 6.359375 -2.609375 C 7.429688 -2.609375 8.195312 -3.09375 8.65625 -4.0625 L 5.59375 -4.0625 L 5.59375 -6.25 L 11.28125 -6.25 L 11.28125 -3.296875 C 11.039062 -2.710938 10.691406 -2.164062 10.234375 -1.65625 C 9.773438 -1.15625 9.191406 -0.738281 8.484375 -0.40625 C 7.773438 -0.0820312 6.96875 0.078125 6.0625 0.078125 C 4.96875 0.078125 4 -0.15625 3.15625 -0.625 C 2.3125 -1.101562 1.65625 -1.765625 1.1875 -2.609375 C 0.726562 -3.453125 0.5 -4.421875 0.5 -5.515625 C 0.5 -6.585938 0.726562 -7.546875 1.1875 -8.390625 C 1.65625 -9.242188 2.304688 -9.90625 3.140625 -10.375 C 3.984375 -10.84375 4.953125 -11.078125 6.046875 -11.078125 C 7.429688 -11.078125 8.570312 -10.742188 9.46875 -10.078125 C 10.375 -9.421875 10.9375 -8.515625 11.15625 -7.359375 Z M 7.875 -7.359375 "/></g></g></g><g fill="rgb(100%, 100%, 100%)" fill-opacity="1"><g transform="translate(48.413265, 30.509382)"><g><path d="M 3.921875 -7.1875 C 4.265625 -7.6875 4.675781 -8.082031 5.15625 -8.375 C 5.644531 -8.664062 6.171875 -8.8125 6.734375 -8.8125 L 6.734375 -5.5625 L 5.875 -5.5625 C 5.21875 -5.5625 4.726562 -5.429688 4.40625 -5.171875 C 4.082031 -4.910156 3.921875 -4.457031 3.921875 -3.8125 L 3.921875 0 L 0.875 0 L 0.875 -8.734375 L 3.921875 -8.734375 Z M 3.921875 -7.1875 "/></g></g></g><g fill="rgb(100%, 100%, 100%)" fill-opacity="1"><g transform="translate(55.370294, 30.509382)"><g><path d="M 0.375 -4.375 C 0.375 -5.28125 0.535156 -6.066406 0.859375 -6.734375 C 1.191406 -7.410156 1.640625 -7.929688 2.203125 -8.296875 C 2.765625 -8.660156 3.394531 -8.84375 4.09375 -8.84375 C 4.695312 -8.84375 5.210938 -8.722656 5.640625 -8.484375 C 6.078125 -8.242188 6.414062 -7.921875 6.65625 -7.515625 L 6.65625 -8.734375 L 9.71875 -8.734375 L 9.71875 0 L 6.65625 0 L 6.65625 -1.21875 C 6.414062 -0.8125 6.078125 -0.488281 5.640625 -0.25 C 5.203125 -0.0078125 4.6875 0.109375 4.09375 0.109375 C 3.394531 0.109375 2.765625 -0.0703125 2.203125 -0.4375 C 1.640625 -0.800781 1.191406 -1.320312 0.859375 -2 C 0.535156 -2.675781 0.375 -3.46875 0.375 -4.375 Z M 6.65625 -4.375 C 6.65625 -4.9375 6.503906 -5.375 6.203125 -5.6875 C 5.898438 -6.007812 5.523438 -6.171875 5.078125 -6.171875 C 4.617188 -6.171875 4.238281 -6.015625 3.9375 -5.703125 C 3.632812 -5.390625 3.484375 -4.945312 3.484375 -4.375 C 3.484375 -3.8125 3.632812 -3.363281 3.9375 -3.03125 C 4.238281 -2.707031 4.617188 -2.546875 5.078125 -2.546875 C 5.523438 -2.546875 5.898438 -2.707031 6.203125 -3.03125 C 6.503906 -3.351562 6.65625 -3.800781 6.65625 -4.375 Z M 6.65625 -4.375 "/></g></g></g><g fill="rgb(100%, 100%, 100%)" fill-opacity="1"><g transform="translate(65.953702, 30.509382)"><g><path d="M 6.578125 -8.8125 C 7.585938 -8.8125 8.382812 -8.472656 8.96875 -7.796875 C 9.5625 -7.128906 9.859375 -6.226562 9.859375 -5.09375 L 9.859375 0 L 6.8125 0 L 6.8125 -4.6875 C 6.8125 -5.1875 6.679688 -5.578125 6.421875 -5.859375 C 6.160156 -6.140625 5.816406 -6.28125 5.390625 -6.28125 C 4.929688 -6.28125 4.570312 -6.140625 4.3125 -5.859375 C 4.050781 -5.578125 3.921875 -5.1875 3.921875 -4.6875 L 3.921875 0 L 0.875 0 L 0.875 -8.734375 L 3.921875 -8.734375 L 3.921875 -7.484375 C 4.191406 -7.878906 4.554688 -8.195312 5.015625 -8.4375 C 5.472656 -8.6875 5.992188 -8.8125 6.578125 -8.8125 Z M 6.578125 -8.8125 "/></g></g></g><g fill="rgb(100%, 100%, 100%)" fill-opacity="1"><g transform="translate(76.630486, 30.509382)"><g><path d="M 2.40625 -9.546875 C 1.875 -9.546875 1.441406 -9.691406 1.109375 -9.984375 C 0.785156 -10.273438 0.625 -10.644531 0.625 -11.09375 C 0.625 -11.550781 0.785156 -11.929688 1.109375 -12.234375 C 1.441406 -12.535156 1.875 -12.6875 2.40625 -12.6875 C 2.9375 -12.6875 3.363281 -12.535156 3.6875 -12.234375 C 4.019531 -11.929688 4.1875 -11.550781 4.1875 -11.09375 C 4.1875 -10.644531 4.019531 -10.273438 3.6875 -9.984375 C 3.363281 -9.691406 2.9375 -9.546875 2.40625 -9.546875 Z M 3.921875 -8.734375 L 3.921875 0 L 0.875 0 L 0.875 -8.734375 Z M 3.921875 -8.734375 "/></g></g></g><g fill="rgb(100%, 100%, 100%)" fill-opacity="1"><g transform="translate(81.424148, 30.509382)"><g><path d="M 6.578125 -8.8125 C 7.585938 -8.8125 8.382812 -8.472656 8.96875 -7.796875 C 9.5625 -7.128906 9.859375 -6.226562 9.859375 -5.09375 L 9.859375 0 L 6.8125 0 L 6.8125 -4.6875 C 6.8125 -5.1875 6.679688 -5.578125 6.421875 -5.859375 C 6.160156 -6.140625 5.816406 -6.28125 5.390625 -6.28125 C 4.929688 -6.28125 4.570312 -6.140625 4.3125 -5.859375 C 4.050781 -5.578125 3.921875 -5.1875 3.921875 -4.6875 L 3.921875 0 L 0.875 0 L 0.875 -8.734375 L 3.921875 -8.734375 L 3.921875 -7.484375 C 4.191406 -7.878906 4.554688 -8.195312 5.015625 -8.4375 C 5.472656 -8.6875 5.992188 -8.8125 6.578125 -8.8125 Z M 6.578125 -8.8125 "/></g></g></g><g fill="rgb(100%, 100%, 100%)" fill-opacity="1"><g transform="translate(92.100932, 30.509382)"><g><path d="M 6.609375 -8.8125 C 7.609375 -8.8125 8.398438 -8.472656 8.984375 -7.796875 C 9.566406 -7.128906 9.859375 -6.226562 9.859375 -5.09375 L 9.859375 0 L 6.8125 0 L 6.8125 -4.6875 C 6.8125 -5.1875 6.679688 -5.578125 6.421875 -5.859375 C 6.160156 -6.140625 5.816406 -6.28125 5.390625 -6.28125 C 4.929688 -6.28125 4.570312 -6.140625 4.3125 -5.859375 C 4.050781 -5.578125 3.921875 -5.1875 3.921875 -4.6875 L 3.921875 0 L 0.875 0 L 0.875 -11.515625 L 3.921875 -11.515625 L 3.921875 -7.484375 C 4.191406 -7.878906 4.554688 -8.195312 5.015625 -8.4375 C 5.484375 -8.6875 6.015625 -8.8125 6.609375 -8.8125 Z M 6.609375 -8.8125 "/></g></g></g><g fill="rgb(100%, 100%, 100%)" fill-opacity="1"><g transform="translate(102.777717, 30.509382)"><g><path d="M 0.375 -4.375 C 0.375 -5.28125 0.535156 -6.066406 0.859375 -6.734375 C 1.191406 -7.410156 1.640625 -7.929688 2.203125 -8.296875 C 2.765625 -8.660156 3.394531 -8.84375 4.09375 -8.84375 C 4.695312 -8.84375 5.210938 -8.722656 5.640625 -8.484375 C 6.078125 -8.242188 6.414062 -7.921875 6.65625 -7.515625 L 6.65625 -8.734375 L 9.71875 -8.734375 L 9.71875 0 L 6.65625 0 L 6.65625 -1.21875 C 6.414062 -0.8125 6.078125 -0.488281 5.640625 -0.25 C 5.203125 -0.0078125 4.6875 0.109375 4.09375 0.109375 C 3.394531 0.109375 2.765625 -0.0703125 2.203125 -0.4375 C 1.640625 -0.800781 1.191406 -1.320312 0.859375 -2 C 0.535156 -2.675781 0.375 -3.46875 0.375 -4.375 Z M 6.65625 -4.375 C 6.65625 -4.9375 6.503906 -5.375 6.203125 -5.6875 C 5.898438 -6.007812 5.523438 -6.171875 5.078125 -6.171875 C 4.617188 -6.171875 4.238281 -6.015625 3.9375 -5.703125 C 3.632812 -5.390625 3.484375 -4.945312 3.484375 -4.375 C 3.484375 -3.8125 3.632812 -3.363281 3.9375 -3.03125 C 4.238281 -2.707031 4.617188 -2.546875 5.078125 -2.546875 C 5.523438 -2.546875 5.898438 -2.707031 6.203125 -3.03125 C 6.503906 -3.351562 6.65625 -3.800781 6.65625 -4.375 Z M 6.65625 -4.375 "/></g></g></g><g fill="rgb(100%, 100%, 100%)" fill-opacity="1"><g transform="translate(113.361125, 30.509382)"><g><path d="M 4.59375 0.109375 C 3.800781 0.109375 3.097656 -0.0195312 2.484375 -0.28125 C 1.867188 -0.550781 1.378906 -0.914062 1.015625 -1.375 C 0.660156 -1.832031 0.460938 -2.351562 0.421875 -2.9375 L 3.375 -2.9375 C 3.414062 -2.65625 3.546875 -2.4375 3.765625 -2.28125 C 3.984375 -2.125 4.253906 -2.046875 4.578125 -2.046875 C 4.828125 -2.046875 5.023438 -2.097656 5.171875 -2.203125 C 5.316406 -2.304688 5.390625 -2.441406 5.390625 -2.609375 C 5.390625 -2.828125 5.269531 -2.988281 5.03125 -3.09375 C 4.789062 -3.195312 4.394531 -3.3125 3.84375 -3.4375 C 3.21875 -3.5625 2.695312 -3.703125 2.28125 -3.859375 C 1.875 -4.015625 1.515625 -4.269531 1.203125 -4.625 C 0.898438 -4.976562 0.75 -5.453125 0.75 -6.046875 C 0.75 -6.566406 0.890625 -7.035156 1.171875 -7.453125 C 1.453125 -7.878906 1.863281 -8.21875 2.40625 -8.46875 C 2.945312 -8.71875 3.601562 -8.84375 4.375 -8.84375 C 5.507812 -8.84375 6.40625 -8.5625 7.0625 -8 C 7.71875 -7.4375 8.097656 -6.703125 8.203125 -5.796875 L 5.453125 -5.796875 C 5.398438 -6.066406 5.273438 -6.273438 5.078125 -6.421875 C 4.890625 -6.578125 4.632812 -6.65625 4.3125 -6.65625 C 4.0625 -6.65625 3.867188 -6.609375 3.734375 -6.515625 C 3.609375 -6.421875 3.546875 -6.289062 3.546875 -6.125 C 3.546875 -5.925781 3.664062 -5.769531 3.90625 -5.65625 C 4.144531 -5.550781 4.53125 -5.441406 5.0625 -5.328125 C 5.6875 -5.191406 6.207031 -5.039062 6.625 -4.875 C 7.050781 -4.707031 7.421875 -4.4375 7.734375 -4.0625 C 8.054688 -3.695312 8.21875 -3.195312 8.21875 -2.5625 C 8.21875 -2.0625 8.066406 -1.609375 7.765625 -1.203125 C 7.472656 -0.796875 7.054688 -0.472656 6.515625 -0.234375 C 5.972656 -0.00390625 5.332031 0.109375 4.59375 0.109375 Z M 4.59375 0.109375 "/></g></g></g></svg>