<svg xmlns="http://www.w3.org/2000/svg" xmlns:xlink="http://www.w3.org/1999/xlink" width="40" zoomAndPan="magnify" viewBox="0 0 30 30.000001" height="40" preserveAspectRatio="xMidYMid meet" version="1.0"><defs><g/></defs><g fill="rgb(100%, 100%, 100%)" fill-opacity="1"><g transform="translate(6.958933, 25.241808)"><g><path d="M 14.554688 -5.699219 C 14.554688 -9.007812 11.707031 -10.417969 8.058594 -11.765625 C 6.679688 -12.289062 4.964844 -12.960938 4.964844 -14.679688 C 4.964844 -16.179688 6.21875 -16.730469 7.476562 -16.730469 C 8.949219 -16.730469 10.203125 -16.332031 11.0625 -15.382812 C 11.859375 -14.617188 12.839844 -14.832031 13.300781 -15.292969 C 13.699219 -15.660156 13.972656 -16.394531 13.605469 -17.007812 C 12.71875 -18.449219 11.152344 -19.367188 9.40625 -19.703125 L 9.40625 -20.746094 C 9.40625 -21.542969 8.792969 -22.15625 8.027344 -22.15625 C 7.230469 -22.15625 6.589844 -21.542969 6.589844 -20.746094 L 6.589844 -19.828125 C 3.800781 -19.457031 1.714844 -17.621094 1.714844 -14.585938 C 1.714844 -11.214844 4.382812 -9.867188 7.414062 -8.703125 C 9.746094 -7.8125 11.214844 -7.140625 11.214844 -5.699219 C 11.214844 -3.707031 9.804688 -2.878906 7.96875 -2.878906 C 6.007812 -2.878906 4.628906 -3.648438 3.984375 -4.65625 C 3.492188 -5.332031 2.972656 -5.425781 2.542969 -5.425781 C 1.316406 -5.425781 0.613281 -4.105469 1.316406 -3.003906 C 2.175781 -1.5625 3.953125 -0.09375 6.589844 0.214844 L 6.589844 1.316406 C 6.589844 2.113281 7.230469 2.757812 8.027344 2.757812 C 8.792969 2.757812 9.40625 2.113281 9.40625 1.316406 L 9.40625 0.09375 C 12.472656 -0.519531 14.554688 -2.757812 14.554688 -5.699219 Z M 14.554688 -5.699219 "/></g></g></g></svg>