<svg width="24" height="24" viewBox="0 0 24 24" fill="none" xmlns="http://www.w3.org/2000/svg">
<path d="M17.1095 18.17C17.2513 18.3089 17.4411 18.3877 17.6395 18.39C17.8375 18.3857 18.0267 18.3072 18.1695 18.17C18.31 18.0294 18.3889 17.8388 18.3889 17.64C18.3889 17.4413 18.31 17.2506 18.1695 17.11L13.0595 12L18.1695 6.89002C18.2432 6.82135 18.3023 6.73855 18.3433 6.64656C18.3843 6.55456 18.4064 6.45524 18.4081 6.35454C18.4099 6.25384 18.3914 6.15381 18.3537 6.06042C18.3159 5.96703 18.2598 5.8822 18.1886 5.81098C18.1174 5.73976 18.0325 5.68362 17.9391 5.64589C17.8457 5.60817 17.7457 5.58965 17.645 5.59143C17.5443 5.5932 17.445 5.61524 17.353 5.65624C17.261 5.69723 17.1782 5.75633 17.1095 5.83002L11.9995 10.94L6.88953 5.83002C6.82087 5.75633 6.73807 5.69723 6.64607 5.65624C6.55407 5.61524 6.45475 5.5932 6.35405 5.59143C6.25335 5.58965 6.15332 5.60817 6.05993 5.64589C5.96654 5.68362 5.88171 5.73976 5.81049 5.81098C5.73927 5.8822 5.68313 5.96703 5.64541 6.06042C5.60769 6.15381 5.58916 6.25384 5.59094 6.35454C5.59271 6.45524 5.61476 6.55456 5.65575 6.64656C5.69674 6.73855 5.75584 6.82135 5.82953 6.89002L10.9395 12L5.82954 17.11C5.68909 17.2506 5.6102 17.4413 5.6102 17.64C5.6102 17.8388 5.68909 18.0294 5.82954 18.17C5.97238 18.3072 6.16154 18.3857 6.35954 18.39C6.55795 18.3877 6.74782 18.3089 6.88954 18.17L11.9995 13.06L17.1095 18.17Z" fill="#000014"/>
</svg>
