<svg xmlns="http://www.w3.org/2000/svg" xmlns:xlink="http://www.w3.org/1999/xlink" width="40" zoomAndPan="magnify" viewBox="0 0 30 30.000001" height="40" preserveAspectRatio="xMidYMid meet" version="1.0"><defs><clipPath id="id1"><path d="M 3.160156 2.394531 L 27.113281 2.394531 L 27.113281 26.347656 L 3.160156 26.347656 Z M 3.160156 2.394531 " clip-rule="nonzero"/></clipPath></defs><g clip-path="url(#id1)"><path fill="rgb(100%, 34.118652%, 34.118652%)" d="M 15.132812 26.351562 C 8.519531 26.351562 3.15625 20.988281 3.15625 14.375 C 3.15625 7.761719 8.519531 2.398438 15.132812 2.398438 C 21.746094 2.398438 27.109375 7.761719 27.109375 14.375 C 27.109375 20.988281 21.746094 26.351562 15.132812 26.351562 " fill-opacity="1" fill-rule="nonzero"/></g><path fill="rgb(100%, 100%, 100%)" d="M 15.085938 20.933594 C 15.300781 20.957031 15.496094 20.90625 15.632812 20.769531 L 20.039062 16.363281 C 20.34375 16.058594 20.230469 15.457031 19.789062 15.019531 C 19.351562 14.578125 18.75 14.464844 18.449219 14.769531 L 16.328125 16.886719 L 16.328125 8.9375 C 16.328125 8.3125 15.824219 7.808594 15.203125 7.808594 C 14.582031 7.808594 14.078125 8.3125 14.078125 8.9375 L 14.078125 17.121094 L 11.726562 14.769531 C 11.421875 14.464844 10.820312 14.578125 10.382812 15.019531 C 9.941406 15.457031 9.828125 16.058594 10.132812 16.363281 L 14.539062 20.769531 C 14.675781 20.90625 14.871094 20.957031 15.085938 20.933594 " fill-opacity="1" fill-rule="nonzero"/></svg>